<?xml version="1.0" encoding="UTF-8" standalone="no"?>
<!-- Created with Inkscape (http://www.inkscape.org/) -->

<svg
   xmlns:dc="http://purl.org/dc/elements/1.1/"
   xmlns:cc="http://creativecommons.org/ns#"
   xmlns:rdf="http://www.w3.org/1999/02/22-rdf-syntax-ns#"
   xmlns:svg="http://www.w3.org/2000/svg"
   xmlns="http://www.w3.org/2000/svg"
   xmlns:sodipodi="http://sodipodi.sourceforge.net/DTD/sodipodi-0.dtd"
   xmlns:inkscape="http://www.inkscape.org/namespaces/inkscape"
   width="10.4in"
   height="0.98000002in"
   viewBox="0 0 264.15999 24.892001"
   version="1.1"
   id="svg8"
   inkscape:version="0.92.3 (2405546, 2018-03-11)"
   sodipodi:docname="logo-wripetyter.svg">
  <defs
     id="defs2" />
  <sodipodi:namedview
     id="base"
     pagecolor="#ffffff"
     bordercolor="#000000"
     borderopacity="1"
     inkscape:pageopacity="0"
     inkscape:pageshadow="2"
     inkscape:zoom="0.98994949"
     inkscape:cx="524.80406"
     inkscape:cy="-27.518126"
     inkscape:document-units="mm"
     inkscape:current-layer="g88"
     showgrid="false"
     units="in"
     inkscape:window-width="1920"
     inkscape:window-height="959"
     inkscape:window-x="0"
     inkscape:window-y="28"
     inkscape:window-maximized="1"
     inkscape:pagecheckerboard="true" />
  <metadata
     id="metadata5">
    <rdf:RDF>
      <cc:Work
         rdf:about="">
        <dc:format>image/svg+xml</dc:format>
        <dc:type
           rdf:resource="http://purl.org/dc/dcmitype/StillImage" />
        <dc:title></dc:title>
      </cc:Work>
    </rdf:RDF>
  </metadata>
  <g
     inkscape:label="Layer 1"
     inkscape:groupmode="layer"
     id="layer1"
     transform="translate(0,-272.10798)">
    <g
       aria-label="coffee | metal | code"
       style="font-style:normal;font-variant:normal;font-weight:normal;font-stretch:normal;font-size:33.86666489px;line-height:1.25;font-family:Wripetyter;-inkscape-font-specification:'Wripetyter, Normal';font-variant-ligatures:normal;font-variant-caps:normal;font-variant-numeric:normal;font-feature-settings:normal;text-align:start;letter-spacing:0px;word-spacing:0px;writing-mode:lr-tb;text-anchor:start;fill:#444444;fill-opacity:1;stroke:none;stroke-width:0.26458332"
       id="text12">
      <g
         id="g88"
         inkscape:export-xdpi="1200.1619"
         inkscape:export-ydpi="1200.1619">
        <path
           id="path36"
           style="font-style:normal;font-variant:normal;font-weight:normal;font-stretch:normal;font-size:33.86666489px;font-family:Wripetyter;-inkscape-font-specification:'Wripetyter, Normal';font-variant-ligatures:normal;font-variant-caps:normal;font-variant-numeric:normal;font-feature-settings:normal;text-align:start;writing-mode:lr-tb;text-anchor:start;fill:#444444;fill-opacity:1;stroke-width:0.26458332"
           d="m 5.2619008,279.65091 h 1.4552083 v 0.11576 h 0.3307291 v 0.0992 h 0.3307292 v 0.11575 h 0.3307291 v 0.11576 h 0.2315104 v 0.11575 h 0.3307292 v 0.0992 h 0.2315104 v 0.11576 h 0.2149739 v 0.11575 h 0.214974 v 0.11576 h 0.1157552 v 0.0992 h 0.1157552 v 0.11575 H 9.28026 v 0.11576 h 0.2149739 v 0.11575 h 0.1157553 v 0.0992 h 0.1157552 v 0.23151 h 0.099219 v 0.0992 h 0.1157552 v 0.23151 h 0.1157557 v 0.21497 h 0.09922 v 0.23152 h 0.115755 v 0.33072 h 0.115756 v 0.23151 h 0.115755 v 0.0992 h 0.09922 v 0.23151 h 0.115755 v 0.0992 h 0.115755 v 0.11576 h 0.115755 v 0.23151 h 0.09922 v 0.21497 h 0.115755 V 284 h 0.115755 v 0.21498 h 0.115756 v 0.23151 h -0.115756 v 0.0992 h -0.115755 v 0.11575 h -0.115755 v 0.11576 h -0.09922 v 0.0992 h -0.115755 v 0.11576 h -0.115755 v 0.11576 h -0.115755 v 0.11575 h -0.09922 v 0.0992 h -0.115755 v 0.11575 H 9.8259631 v 0.11576 H 9.1645048 v -0.11576 H 8.9329944 v -0.11575 h -0.099219 v -0.0992 H 8.7180204 v -0.11575 H 8.6022652 v -0.11576 h -0.099219 v -0.11576 H 8.3872913 v -0.21497 H 8.2715361 v -0.11575 H 8.1557809 v -0.0992 h -0.099219 v -0.23151 H 7.9408069 v -0.66146 H 7.8250517 v -0.23151 H 7.7092965 v -0.11576 h -0.099219 v -0.0992 H 7.4943226 v -0.11575 H 7.2628122 v -0.11576 h -0.099219 v -0.0992 H 6.8328643 v -0.11575 H 5.8241404 v 0.11575 H 5.4934112 v 0.0992 H 5.2619008 v 0.11576 H 5.0469269 v 0.11575 H 4.9311717 v 0.0992 h -0.214974 v 0.11576 H 4.6004425 v 0.11575 H 4.4846873 v 0.11576 H 4.3689321 v 0.21497 h -0.099219 v 0.11576 H 4.1539582 v 0.21497 H 4.038203 v 0.11576 H 3.9224478 v 0.23151 H 3.823229 v 0.0992 H 3.7074738 v 0.11575 H 3.5917186 v 0.21497 h -0.099219 v 0.11576 H 3.3767447 v 0.23151 H 3.2609895 v 0.33073 H 3.1452343 v 0.33073 h -0.099219 v 0.44648 H 2.9302603 v 0.56224 H 2.8145051 v 2.11667 h 0.1157552 v 0.77721 h 0.1157552 v 0.44649 h 0.099219 v 0.33073 h 0.1157552 v 0.21497 h 0.1157552 v 0.23151 h 0.1157552 v 0.21497 h 0.099219 v 0.11576 h 0.1157552 v 0.11575 H 3.823229 v 0.0992 h 0.099219 v 0.11576 H 4.038203 v 0.11575 h 0.1157552 v 0.11576 h 0.1157552 v 0.0992 h 0.2149739 v 0.11575 h 0.2315104 v 0.11576 h 0.214974 v 0.11575 h 0.3307291 v 0.0992 H 5.59263 v 0.11576 h 0.5622395 v 0.11575 h 1.6701822 v -0.11575 h 0.7772135 v -0.11576 h 0.2315105 v -0.0992 h 0.2149739 v -0.11575 h 0.3307291 v -0.11576 h 0.3472657 v -0.11575 h 0.3307296 v -0.0992 h 0.214973 v -0.11576 h 0.115756 v 0.11576 h 0.214974 v 0.0992 h 0.115755 v 0.11575 h 0.115755 v 0.33073 h -0.115755 v 0.33073 h -0.115755 v 0.44649 h -0.09922 v 0.56224 h -0.115755 v 0.44648 h -0.115756 v 0.21497 h -0.115755 v 0.23151 h -0.09922 v 0.11576 H 9.9417183 v 0.0992 H 9.8259631 v 0.11575 h -0.099219 v 0.11576 H 9.3794787 v 0.11575 H 8.9329944 v 0.0992 h -0.214974 v 0.11576 H 8.5030465 v 0.11575 H 8.3872913 v 0.11576 H 8.2715361 v 0.0992 H 7.8250517 v 0.11575 H 6.1548695 V 295.7905 H 5.7083852 v -0.0992 H 5.377656 v -0.11576 H 5.0469269 v -0.11575 H 4.4846873 v -0.11576 H 4.038203 v -0.0992 H 3.823229 v -0.11575 H 3.5917186 v -0.11576 H 3.3767447 v -0.11575 H 3.1452343 v -0.0992 h -0.099219 v -0.11576 H 2.9302603 V 294.5668 H 2.8145051 v -0.11576 H 2.6987499 v -0.0992 h -0.099219 v -0.11576 H 2.483776 v -0.11576 H 2.3680208 v -0.21497 H 2.2522656 v -0.23151 H 2.1530468 V 293.3431 H 2.0372916 v -0.21497 H 1.9215364 v -0.34727 h -0.099219 v -0.33073 H 1.7065625 V 292.1194 H 1.5908073 v -0.33073 H 1.4750521 v -0.23151 h -0.099219 v -0.21497 H 1.2600781 v -0.23151 H 1.1443229 v -0.99219 H 1.0285677 v -0.23151 h -0.0992187 v -0.21497 h -0.1157552 v -0.23151 h -0.1157552 v -0.0992 h -0.1157552 v -0.33073 h -0.0992188 v -0.44649 h -0.1157552 v -0.56223 h 0.1157552 v -0.89297 h 0.0992188 v -0.56224 h 0.1157552 v -0.42995 h 0.1157552 v -0.34727 h 0.1157552 v -0.21497 h 0.0992187 v -0.11576 h 0.1157552 v -0.11575 h 0.1157552 v -0.21497 h 0.1157552 v -0.77722 h 0.099219 v -0.23151 h 0.1157552 v -0.21497 h 0.1157552 v -0.11576 h 0.1157552 v -0.33073 h 0.099219 v -0.56224 h 0.1157552 v -0.0992 h 0.1157552 v -0.23151 h 0.099219 v -0.33072 h 0.1157552 v -0.44649 H 2.483776 v -0.23151 h 0.1157552 v -0.21497 h 0.099219 v -0.11576 h 0.1157552 v -0.0992 h 0.1157552 v -0.11575 h 0.1157552 v -0.11576 h 0.099219 v -0.11575 h 0.1157552 v -0.0992 h 0.1157552 v -0.11576 h 0.2149739 v -0.11575 h 0.1157552 v -0.11576 H 3.823229 v -0.0992 h 0.214974 v -0.11575 h 0.2315104 v -0.11576 h 0.2149739 v -0.11575 h 0.3307292 v -0.0992 h 0.4464843 z" />
        <path
           id="path38"
           style="font-style:normal;font-variant:normal;font-weight:normal;font-stretch:normal;font-size:33.86666489px;font-family:Wripetyter;-inkscape-font-specification:'Wripetyter, Normal';font-variant-ligatures:normal;font-variant-caps:normal;font-variant-numeric:normal;font-feature-settings:normal;text-align:start;writing-mode:lr-tb;text-anchor:start;fill:#444444;fill-opacity:1;stroke-width:0.26458332"
           d="m 19.03677,279.7336 h 0.446485 v 0.11575 h 0.562239 v 0.0992 h 0.446484 v 0.11576 h 0.33073 v 0.11575 h 0.214974 v 0.11576 h 0.115755 v 0.0992 h 0.214974 v 0.11576 h 0.347265 v 0.11576 h 0.330729 v 0.11575 h 0.214974 v 0.0992 h 0.115756 v 0.11575 h 0.23151 v 0.11576 h 0.09922 v 0.11575 h 0.115755 v 0.0992 h 0.115755 v 0.11576 h 0.115755 v 0.11575 h 0.09922 v 0.21498 h 0.115755 v 0.11575 h 0.115755 v 0.11576 h 0.115756 v 0.11575 h 0.09922 v 0.21498 h 0.115756 v 0.11575 h 0.115755 v 0.33073 h 0.115755 v 0.33073 h 0.09922 v 0.34727 h 0.115755 v 0.21497 h 0.115755 v 0.23151 h 0.115755 v 0.0992 h 0.09922 v 0.23151 h 0.115755 v 0.11576 h 0.115756 v 0.33072 h 0.115755 v 0.56224 h 0.09922 v 2.4474 h 0.115756 v 0.44648 h 0.115755 v 0.44649 h -0.115755 v 0.21497 h -0.115756 v 1.00873 h 0.115756 v 0.44648 h 0.115755 v 0.23151 h -0.115755 v 0.33073 h -0.115756 v 0.21497 h -0.09922 v 0.23151 h -0.115755 v 0.33073 h -0.115756 v 0.56224 h -0.115755 v 0.21498 h -0.09922 v 0.23151 h -0.115755 v 0.11575 h -0.115755 v 0.0992 h -0.115755 v 0.23151 h -0.09922 v 0.21498 h -0.115755 v 0.11575 h -0.115755 v 0.11576 h -0.115756 v 0.11575 h -0.09922 v 0.0992 h -0.115756 v 0.11576 h -0.115755 v 0.11575 h -0.115755 v 0.11576 h -0.09922 v 0.0992 h -0.23151 v 0.11576 h -0.115755 v 0.11576 h -0.09922 v 0.11575 H 22.49289 v 0.0992 h -0.115755 v 0.11575 h -0.115756 v 0.11576 h -0.09922 v 0.11575 h -0.115756 v 0.0992 h -0.23151 v 0.11576 h -0.214974 v 0.11575 h -0.330729 v 0.11576 h -0.23151 v 0.0992 h -0.09922 v 0.11575 h -0.231511 v 0.11576 h -0.777213 v -0.11576 h -0.677995 v 0.11576 H 19.03677 v 0.0992 h -0.330729 v 0.11575 h -0.23151 v 0.11576 h -0.115756 v -0.11576 h -0.330729 v -0.11575 h -0.777213 v -0.0992 h -0.330729 v -0.11576 h -0.231511 v -0.11575 h -0.214974 v -0.0992 h -0.23151 v -0.11576 h -0.214974 v -0.11575 h -0.23151 v -0.11576 h -0.115756 v -0.0992 h -0.214974 v -0.11575 h -0.23151 v -0.11576 h -0.09922 v -0.11575 h -0.115755 v -0.0992 h -0.23151 v -0.11575 h -0.09922 v -0.11576 h -0.115755 v -0.11576 h -0.115756 v -0.0992 h -0.115755 v -0.11576 h -0.09922 v -0.23151 h -0.115756 v -0.21497 h -0.115755 v -0.23151 h -0.115755 v -0.33073 h -0.09922 v -0.21498 h -0.115755 v -0.34726 h -0.115755 v -0.21498 h -0.115755 v -0.33073 h -0.09922 v -0.44648 h -0.115755 v -0.44648 h -0.115756 v -0.678 h -0.115755 v -1.00872 h -0.09922 v -0.66146 h -0.115755 v -0.33073 h 0.115755 v -0.89297 h -0.115755 v -1.12448 h 0.115755 v -0.33073 h 0.09922 v -0.21497 h 0.115755 v -0.23151 h 0.115756 v -0.21498 h 0.115755 v -0.56224 h 0.09922 v -1.12447 h 0.115755 v -0.21498 h 0.115755 v -0.11575 h 0.115755 v -0.21498 h 0.09922 v -0.44648 h 0.115755 v -0.34727 h 0.115755 v -0.21497 h 0.115756 v -0.23151 h 0.09922 v -0.21498 h 0.115755 v -0.11575 h 0.115756 v -0.11576 h 0.115755 v -0.0992 h 0.09922 v -0.11575 h 0.23151 v -0.11576 h 0.115755 v -0.11575 h 0.214974 v -0.0992 h 0.115755 v -0.11575 h 0.33073 v -0.11576 h 0.23151 v -0.11576 h 0.330729 v -0.0992 h 0.330729 v -0.11576 h 0.330729 v -0.11575 h 0.446485 v -0.11576 h 0.892968 v -0.0992 h 0.677995 z m -0.562239,3.78685 v 0.11575 h -0.446485 v 0.11576 h -0.330729 v 0.11575 h -0.330729 v 0.0992 h -0.23151 v 0.11575 h -0.214974 v 0.11576 h -0.115756 v 0.11576 h -0.23151 v 0.0992 h -0.09922 v 0.23151 h -0.115755 v 0.11576 h -0.115755 v 0.21497 h -0.115755 v 0.23151 h -0.09922 v 0.21498 H 15.91138 v 0.23151 h -0.115755 v 0.21497 h -0.115756 v 0.33073 h -0.09922 v 0.44649 h -0.115756 v 2.46393 h 0.115756 v 0.5457 h 0.09922 v 0.23151 h 0.115756 v 0.33073 h 0.115755 v 0.11576 h 0.115755 v 0.21497 h 0.09922 v 0.23151 h 0.115755 v 0.11576 h 0.115755 v 0.0992 h 0.115755 v 0.23151 h 0.09922 v 0.11576 h 0.115755 v 0.0992 h 0.115755 v 0.23151 h 0.115756 v 0.11575 h 0.214974 v 0.0992 h 0.115755 v 0.11576 h 0.115755 v 0.11575 h 0.214974 v 0.11576 h 0.330729 v 0.0992 h 0.347266 v 0.11575 h 1.223698 v -0.11575 h 0.661458 v -0.0992 h 0.23151 v -0.11576 h 0.115755 v -0.11575 h 0.214974 v -0.11576 h 0.231511 v -0.0992 h 0.214974 v -0.11575 h 0.115755 v -0.11576 h 0.09922 v -0.21497 h 0.115755 v -0.44648 h 0.115755 v -0.11576 h 0.115755 v -0.11575 h 0.330729 v -0.11576 h 0.214974 v -0.0992 h 0.115756 v -0.23151 h 0.115755 v -0.89297 h 0.115755 v -0.89297 h 0.09922 v -0.66146 h -0.09922 v -0.33072 H 22.49289 v -0.56224 h -0.115755 v -0.56224 h -0.115756 v -0.21498 h -0.09922 v -0.11575 h -0.115756 v -0.11576 h -0.23151 v -0.11575 h -0.09922 v -0.0992 h -0.115755 v -0.11576 h -0.115755 v -0.23151 h -0.115755 v -0.0992 h -0.09922 v -0.34726 h -0.115755 v -0.21498 h -0.115755 v -0.23151 h -0.09922 v -0.0992 h -0.115755 v -0.11576 h -0.115756 v -0.11576 h -0.214974 v -0.11575 h -0.23151 v -0.0992 h -0.214974 v -0.11575 h -0.347266 v -0.11576 h -0.214973 v -0.11575 z" />
        <path
           id="path40"
           style="font-style:normal;font-variant:normal;font-weight:normal;font-stretch:normal;font-size:33.86666489px;font-family:Wripetyter;-inkscape-font-specification:'Wripetyter, Normal';font-variant-ligatures:normal;font-variant-caps:normal;font-variant-numeric:normal;font-feature-settings:normal;text-align:start;writing-mode:lr-tb;text-anchor:start;fill:#444444;fill-opacity:1;stroke-width:0.26458332"
           d="m 35.077135,272.73868 h 1.256771 v 0.11575 h 0.23151 v 0.11576 h 0.56224 v 0.11575 h 0.46302 v 0.11576 h 0.115756 v 0.11575 h 0.23151 v 0.0992 h 0.115755 v 0.11576 h 0.115755 v 0.11575 h 0.214974 v 0.11576 h 0.347266 v 0.11575 h 0.23151 v 0.11576 h 0.231511 v 0.11575 h 0.23151 v 0.11576 h 0.115755 v 0.11575 h 0.09922 v 0.11576 h 0.115755 v 0.21497 h 0.115755 v 0.11576 h 0.115756 v 0.23151 h 0.115755 v 0.34726 h 0.115755 v 0.23151 h 0.115755 v 0.33073 h 0.115755 v 0.23151 h 0.115756 v 0.57878 h -0.115756 v 0.11575 h -1.02526 v -0.11575 h -0.23151 v -0.11576 h -0.115756 v -0.11575 h -0.115755 v -0.11576 h -0.23151 v -0.11575 h -0.115755 v -0.11576 h -0.115756 v -0.11575 h -0.214973 v -0.11576 h -0.231511 v -0.11575 h -0.347265 v -0.0992 H 34.96138 v 0.0992 h -0.446485 v 0.11575 h -0.23151 v 0.11576 H 34.16763 v 0.11575 h -0.231511 v 0.11576 h -0.115755 v 0.11575 h -0.115755 v 0.23151 h -0.115755 v 0.11576 h -0.115756 v 0.33073 h -0.09922 v 0.34726 h -0.115756 v 1.02526 h 0.115756 v 0.34727 h 0.09922 v 0.23151 h 0.115756 v 0.23151 h 0.115755 v 0.11575 h 0.115755 v 0.0992 h 0.115755 v 0.11576 h 0.231511 v 0.11575 h 0.23151 v 0.11576 h 0.23151 v 0.11575 h 0.33073 v 0.11576 h 0.578776 v 0.11575 h 0.446484 v 0.11576 h 0.23151 v 0.11575 h 0.231511 v 0.11576 h 0.115755 v 0.11576 h 0.115755 v 0.0992 h 0.115755 v 0.11576 h 0.115756 v 0.69453 h -0.115756 v 0.11576 h -0.115755 v 0.11575 h -0.115755 v 0.11576 h -0.23151 v 0.0992 H 36.21815 v 0.11576 h -0.23151 v 0.11576 h -0.330729 v 0.11575 h -0.347266 v 0.11576 H 34.96138 v 0.11575 h -0.231511 v 0.11576 h -0.09922 v 0.11575 h -0.23151 v 0.11576 h -0.115755 v 0.11575 H 34.16763 v 0.0992 h -0.115756 v 0.11576 h -0.115755 v 0.11575 h -0.115755 v 0.34727 h -0.115755 v 0.9095 h -0.115755 v 3.09232 h 0.115755 v 0.44648 h -0.115755 v 0.23151 h -0.115756 v 1.02526 h 0.115756 v 0.69454 h -0.115756 v 0.79375 h 0.115756 v 0.69453 h 0.115755 v 0.67799 h 0.115755 v 0.46302 h 0.115755 v 0.21498 h 0.115755 v 0.11575 h 0.115756 v 0.11576 h 0.115755 v 0.11575 h 0.115755 v 0.11576 h 0.23151 v 0.11575 h 0.446485 v 0.11576 H 35.4244 V 293.525 h 0.677995 v 0.11576 h 0.463021 v 0.11575 h 0.23151 v 0.11576 h 0.231511 v 0.11575 h 0.09922 v 0.0992 h 0.115755 v 0.11576 h 0.115755 v 0.46302 h -0.115755 v 0.34726 h -0.115755 v 0.11576 h -0.09922 v 0.11575 h -0.115755 v 0.0992 h -0.115756 v 0.11576 h -0.46302 v -0.11576 H 35.98664 v 0.11576 h -0.446484 v 0.11575 H 35.4244 v 0.11576 h -0.23151 v 0.11575 h -0.56224 v -0.11575 h -0.23151 v -0.11576 h -0.347266 v -0.11575 h -0.347265 v 0.11575 H 33.37388 v 0.11576 h -0.231511 v 0.11575 h -0.694531 v -0.11575 h -0.909505 v 0.11575 h -0.231511 v -0.11575 h -0.330729 v -0.11576 h -0.926041 v 0.11576 h -0.231511 v 0.11575 h -0.214974 v 0.11576 h -0.578776 v -0.11576 h -0.115755 v -0.11575 h -0.115755 v -0.11576 h -0.115755 v -0.11575 h -0.09922 v -0.21498 h -0.115755 v -0.23151 h -0.115755 v -0.23151 h -0.115756 v -0.23151 h -0.115755 v -0.23151 h 0.115755 v -0.23151 h 0.115756 v -0.21497 h 0.115755 v -0.11576 h 0.115755 v -0.11575 h 0.09922 V 293.525 h 0.23151 v -0.11575 h 0.231511 v -0.11576 h 0.115755 v -0.11575 h 0.115755 v -0.11576 h 0.23151 v -0.11575 h 0.115756 v -0.0992 h 0.09922 v -0.11576 h 0.115756 v -0.11575 h 0.115755 v -0.11576 h 0.23151 v -0.11575 h 0.115755 v -0.11576 h 0.115756 v -0.11575 h 0.115755 v -0.23151 h 0.115755 v -0.79375 h 0.115755 v -0.34727 h 0.115755 v -0.11575 h 0.09922 v -0.11576 h 0.115755 v -0.21497 h 0.115755 v -2.18282 h 0.115756 v -0.56224 h -0.115756 v -0.34726 h -0.115755 v -0.34727 h -0.115755 v -0.33073 h 0.115755 v -0.57877 h -0.115755 v -0.23151 h -0.09922 v -0.11576 h -0.115755 v -0.21497 h -0.115755 v -0.11576 h -0.115755 v -0.11575 h -0.115755 v -0.57878 h 0.115755 v -1.02526 h -0.115755 v -0.23151 h -0.115756 v -0.11575 h -0.115755 v -0.21498 h -0.115755 v -0.11575 h -0.23151 v -0.11576 h -0.115756 v -0.11575 h -0.330729 v -0.11576 h -0.347265 v -0.11575 h -1.819011 v -0.11576 h -0.115755 v -0.11575 h -0.115755 v -0.11576 h -0.115755 v -0.21497 h -0.115756 v -0.23151 H 26.74276 v -0.46303 h 0.115755 v -0.23151 h 0.115756 v -0.11575 h 0.23151 v -0.11576 h 0.115755 v -0.0992 h 0.09922 v -0.11576 h 0.115755 v -0.11576 h 0.115755 v -0.11575 h 0.231511 v -0.11576 h 0.23151 v -0.11575 h 0.231511 v -0.11576 h 0.446484 v -0.11575 h 0.463021 v -0.11576 h 0.347265 v -0.11575 h 0.214974 v -0.11576 h 0.231511 v -0.0992 h 0.115755 v -0.23151 h 0.115755 v -0.11575 h 0.115755 v -0.34727 h 0.115756 v -0.67799 h 0.115755 v -0.23151 h 0.115755 v -0.23151 h 0.115755 v -0.23151 h 0.115755 v -0.23151 h 0.09922 v -0.33073 h 0.115755 v -0.46302 h 0.115755 v -0.46302 h 0.115756 v -0.33073 h 0.115755 v -0.23151 h 0.115755 v -0.23151 h 0.115755 v -0.23151 h 0.115755 v -0.21498 h 0.115756 v -0.23151 h 0.115755 v -0.23151 h 0.115755 v -0.11575 h 0.09922 v -0.11576 h 0.115755 v -0.23151 h 0.115755 v -0.11575 h 0.231511 v -0.11576 h 0.115755 v -0.0992 h 0.23151 v -0.11575 h 0.231511 v -0.11576 h 0.330729 v -0.11575 h 0.810286 v -0.11576 h 0.56224 z" />
        <path
           id="path42"
           style="font-style:normal;font-variant:normal;font-weight:normal;font-stretch:normal;font-size:33.86666489px;font-family:Wripetyter;-inkscape-font-specification:'Wripetyter, Normal';font-variant-ligatures:normal;font-variant-caps:normal;font-variant-numeric:normal;font-feature-settings:normal;text-align:start;writing-mode:lr-tb;text-anchor:start;fill:#444444;fill-opacity:1;stroke-width:0.26458332"
           d="m 49.56307,272.73868 h 1.256771 v 0.11575 h 0.23151 v 0.11576 h 0.56224 v 0.11575 h 0.463021 v 0.11576 h 0.115755 v 0.11575 h 0.23151 v 0.0992 h 0.115755 v 0.11576 h 0.115756 v 0.11575 h 0.214973 v 0.11576 h 0.347266 v 0.11575 h 0.231511 v 0.11576 h 0.23151 v 0.11575 h 0.23151 v 0.11576 h 0.115756 v 0.11575 h 0.09922 v 0.11576 h 0.115755 v 0.21497 h 0.115756 v 0.11576 h 0.115755 v 0.23151 h 0.115755 v 0.34726 h 0.115755 v 0.23151 h 0.115755 v 0.33073 h 0.115756 v 0.23151 h 0.115755 v 0.57878 h -0.115755 v 0.11575 h -1.025261 v -0.11575 h -0.23151 v -0.11576 h -0.115755 v -0.11575 h -0.115755 v -0.11576 h -0.231511 v -0.11575 h -0.115755 v -0.11576 h -0.115755 v -0.11575 h -0.214974 v -0.11576 h -0.231511 v -0.11575 h -0.347265 v -0.0992 h -2.745052 v 0.0992 H 49.00083 v 0.11575 h -0.23151 v 0.11576 h -0.115755 v 0.11575 h -0.231511 v 0.11576 h -0.115755 v 0.11575 h -0.115755 v 0.23151 h -0.115755 v 0.11576 h -0.115755 v 0.33073 h -0.09922 v 0.34726 H 47.74406 v 1.02526 h 0.115755 v 0.34727 h 0.09922 v 0.23151 h 0.115755 v 0.23151 h 0.115755 v 0.11575 h 0.115755 v 0.0992 h 0.115755 v 0.11576 h 0.231511 v 0.11575 h 0.23151 v 0.11576 h 0.231511 v 0.11575 h 0.330729 v 0.11576 h 0.578776 v 0.11575 h 0.446484 v 0.11576 h 0.231511 v 0.11575 h 0.23151 v 0.11576 h 0.115755 v 0.11576 h 0.115755 v 0.0992 h 0.115756 v 0.11576 h 0.115755 v 0.69453 h -0.115755 v 0.11576 h -0.115756 v 0.11575 h -0.115755 v 0.11576 h -0.23151 v 0.0992 h -0.115755 v 0.11576 h -0.231511 v 0.11576 h -0.330729 v 0.11575 H 49.79458 v 0.11576 h -0.347265 v 0.11575 h -0.231511 v 0.11576 h -0.09922 v 0.11575 h -0.231511 v 0.11576 H 48.76932 v 0.11575 h -0.115755 v 0.0992 H 48.53781 v 0.11576 h -0.115756 v 0.11575 h -0.115755 v 0.34727 h -0.115755 v 0.9095 h -0.115755 v 3.09232 h 0.115755 v 0.44648 h -0.115755 v 0.23151 h -0.115755 v 1.02526 h 0.115755 v 0.69454 h -0.115755 v 0.79375 h 0.115755 v 0.69453 h 0.115755 v 0.67799 h 0.115755 v 0.46302 h 0.115755 v 0.21498 h 0.115756 v 0.11575 h 0.115755 v 0.11576 h 0.115755 v 0.11575 h 0.115755 v 0.11576 h 0.231511 v 0.11575 h 0.446484 v 0.11576 h 0.347266 V 293.525 h 0.677994 v 0.11576 h 0.463021 v 0.11575 h 0.231511 v 0.11576 h 0.23151 v 0.11575 h 0.09922 v 0.0992 h 0.115755 v 0.11576 h 0.115755 v 0.46302 h -0.115755 v 0.34726 h -0.115755 v 0.11576 h -0.09922 v 0.11575 h -0.115755 v 0.0992 h -0.115755 v 0.11576 h -0.463021 v -0.11576 h -0.347266 v 0.11576 h -0.446484 v 0.11575 h -0.115755 v 0.11576 h -0.231511 v 0.11575 h -0.562239 v -0.11575 h -0.231511 v -0.11576 H 48.53781 v -0.11575 h -0.347266 v 0.11575 h -0.330729 v 0.11576 h -0.231511 v 0.11575 h -0.694531 v -0.11575 h -0.909505 v 0.11575 h -0.23151 v -0.11575 h -0.330729 v -0.11576 h -0.926042 v 0.11576 h -0.23151 v 0.11575 h -0.214974 v 0.11576 h -0.578776 v -0.11576 h -0.115756 v -0.11575 h -0.115755 v -0.11576 h -0.115755 v -0.11575 h -0.09922 v -0.21498 h -0.115755 v -0.23151 h -0.115755 v -0.23151 h -0.115755 v -0.23151 h -0.115756 v -0.23151 h 0.115756 v -0.23151 h 0.115755 v -0.21497 h 0.115755 v -0.11576 h 0.115755 v -0.11575 h 0.09922 V 293.525 h 0.23151 v -0.11575 h 0.231511 v -0.11576 h 0.115755 v -0.11575 h 0.115755 v -0.11576 h 0.231511 v -0.11575 h 0.115755 v -0.0992 h 0.09922 v -0.11576 h 0.115755 v -0.11575 h 0.115755 v -0.11576 h 0.23151 v -0.11575 h 0.115756 v -0.11576 h 0.115755 v -0.11575 h 0.115755 v -0.23151 h 0.115755 v -0.79375 h 0.115755 v -0.34727 h 0.115756 v -0.11575 h 0.09922 v -0.11576 h 0.115755 v -0.21497 h 0.115756 v -2.18282 h 0.115755 v -0.56224 h -0.115755 v -0.34726 h -0.115756 v -0.34727 h -0.115755 v -0.33073 h 0.115755 v -0.57877 h -0.115755 v -0.23151 h -0.09922 v -0.11576 h -0.115756 v -0.21497 h -0.115755 v -0.11576 h -0.115755 v -0.11575 h -0.115755 v -0.57878 h 0.115755 v -1.02526 h -0.115755 v -0.23151 h -0.115755 v -0.11575 h -0.115756 v -0.21498 h -0.115755 v -0.11575 h -0.23151 v -0.11576 h -0.115755 v -0.11575 h -0.33073 v -0.11576 h -0.347265 v -0.11575 h -1.819011 v -0.11576 h -0.115755 v -0.11575 h -0.115755 v -0.11576 h -0.115755 v -0.21497 h -0.115755 v -0.23151 h -0.115756 v -0.46303 h 0.115756 v -0.23151 h 0.115755 v -0.11575 h 0.23151 v -0.11576 h 0.115755 v -0.0992 h 0.09922 v -0.11576 h 0.115755 v -0.11576 h 0.115756 v -0.11575 h 0.23151 v -0.11576 h 0.23151 v -0.11575 h 0.231511 v -0.11576 h 0.446484 v -0.11575 h 0.463021 v -0.11576 h 0.347266 v -0.11575 h 0.214974 v -0.11576 h 0.23151 v -0.0992 h 0.115755 v -0.23151 h 0.115755 v -0.11575 h 0.115756 v -0.34727 h 0.115755 v -0.67799 h 0.115755 v -0.23151 h 0.115755 v -0.23151 h 0.115755 v -0.23151 h 0.115756 v -0.23151 h 0.09922 v -0.33073 h 0.115755 v -0.46302 h 0.115756 v -0.46302 h 0.115755 v -0.33073 h 0.115755 v -0.23151 h 0.115755 v -0.23151 h 0.115756 v -0.23151 h 0.115755 v -0.21498 h 0.115755 v -0.23151 h 0.115755 v -0.23151 h 0.115755 v -0.11575 h 0.09922 v -0.11576 h 0.115755 v -0.23151 h 0.115755 v -0.11575 h 0.231511 v -0.11576 h 0.115755 v -0.0992 h 0.23151 v -0.11575 h 0.231511 v -0.11576 h 0.330729 v -0.11575 h 0.810286 v -0.11576 h 0.56224 z" />
        <path
           id="path44"
           style="font-style:normal;font-variant:normal;font-weight:normal;font-stretch:normal;font-size:33.86666489px;font-family:Wripetyter;-inkscape-font-specification:'Wripetyter, Normal';font-variant-ligatures:normal;font-variant-caps:normal;font-variant-numeric:normal;font-feature-settings:normal;text-align:start;writing-mode:lr-tb;text-anchor:start;fill:#444444;fill-opacity:1;stroke-width:0.26458332"
           d="m 61.353566,279.45248 h 1.008724 v 0.11575 h 0.56224 v 0.11576 h 0.446484 v 0.11575 h 0.330729 v 0.0992 h 0.347266 v 0.11576 h 0.214974 v 0.11575 h 0.56224 v 0.11576 h 0.23151 v 0.11575 h 0.115755 v 0.0992 h 0.214974 v 0.11576 h 0.115755 v 0.23151 h 0.115755 v 0.21497 h 0.115756 v 0.34727 h 0.115755 v 0.44648 h 0.09922 v 0.23151 h 0.115755 v 0.21497 h 0.115755 v 0.23152 h 0.115755 v 0.23151 h 0.115755 v 0.33072 h 0.09922 v 0.33073 h 0.115755 v 0.23151 h 0.115756 v 0.11576 h 0.115755 v 0.21497 h 0.115755 v 0.11576 h 0.115755 v 0.11575 h 0.09922 v 0.23151 h 0.115755 v 0.0992 h 0.115755 v 0.34727 h 0.115756 v 0.56224 h 0.115755 v 0.21497 h 0.09922 v 0.34727 h -0.09922 v 1.68672 h -0.115755 v 0.33073 h -0.115756 v 0.11575 h -0.115755 v 0.11576 h -0.115755 v 0.11575 h -0.09922 v 1.00872 h 0.09922 v 0.23152 h 0.115755 v 0.0992 h 0.115755 v 0.11576 h 0.115756 v 0.11575 h 0.115755 v 0.23151 h 0.09922 v 0.21498 h 0.115756 v 1.12448 h -0.115756 v 0.44648 h -0.09922 v 0.34727 h -0.115755 v 0.21497 h -0.115756 v 0.23151 h -0.115755 v 0.23151 h -0.115755 v 0.21498 h -0.09922 v 0.11575 h -0.115755 v 0.11576 h -0.115755 v 0.21497 h -0.115755 v 0.11576 h -0.115756 v 0.11575 h -0.115755 v 0.23151 h -0.09922 v 0.0992 h -0.115755 v 0.11576 h -0.115755 v 0.11575 h -0.115755 v 0.11576 h -0.115755 v 0.11575 h -0.09922 v 0.0992 h -0.115755 v 0.11576 h -0.231511 v 0.11575 h -0.115755 v 0.11576 h -0.214974 v 0.11575 h -0.115755 v 0.0992 h -0.115755 v 0.11575 h -0.214974 v 0.11576 h -0.231511 v 0.11576 h -0.23151 v 0.11575 h -0.777214 v 0.0992 h -1.471744 v -0.0992 h -0.214974 v -0.11575 H 61.56854 v -0.11576 h -1.240234 v -0.11576 h -0.09922 v -0.11575 h -0.23151 v -0.0992 h -0.115755 v -0.11575 h -0.214974 v -0.11576 h -0.231511 v -0.11575 h -0.23151 v -0.11576 h -0.214974 v -0.0992 h -0.23151 v -0.11575 h -0.115756 v -0.11576 h -0.115755 v -0.11575 h -0.09922 v -0.11576 h -0.23151 v -0.0992 h -0.115755 v -0.11575 h -0.115755 v -0.11576 h -0.09922 v -0.11575 h -0.115755 v -0.11576 h -0.115755 v -0.0992 h -0.115756 v -0.11575 h -0.115755 v -0.56224 h -0.09922 v -0.44649 h -0.115755 v -0.11575 h -0.115755 v -0.23151 h -0.115755 v -0.11576 h -0.115755 v -0.0992 h -0.09922 v -0.23151 H 56.62414 v -0.23151 h -0.115756 v -0.21497 h -0.115755 v -0.34727 h -0.115755 v -1.22369 h -0.09922 v -0.34727 H 56.0619 v -0.33073 h 0.115755 v -0.46302 h 0.09922 v -0.33073 h -0.09922 V 287.6711 H 56.0619 v -1.68672 h -0.115755 v -0.678 H 56.0619 v -0.33073 h 0.115755 v -0.23151 h 0.09922 v -0.33073 h 0.115755 v -0.46302 h 0.115755 v -0.21497 h 0.115756 v -0.11576 h 0.115755 v -0.23151 h 0.09922 v -0.0992 h 0.115755 v -0.11575 h 0.115755 v -0.23151 h 0.115755 v -0.44648 h 0.115755 v -0.23152 h 0.09922 v -0.21497 h 0.115755 v -0.23151 h 0.115756 v -0.11575 h 0.115755 v -0.11576 h 0.214974 v -0.0992 h 0.23151 v -0.11575 h 0.115755 v -0.23151 h 0.115755 v -0.21498 h 0.09922 v -0.23151 h 0.115755 v -0.11575 h 0.115756 v -0.11576 h 0.115755 v -0.0992 h 0.115755 v -0.11575 h 0.09922 v -0.11576 h 0.23151 v -0.11575 h 0.231511 v -0.11576 h 0.214974 v -0.0992 h 0.46302 v -0.11575 h 0.56224 v -0.11576 h 0.562239 z m 0.214974,2.69544 v 0.11575 h -0.330729 v 0.11576 h -0.347265 v 0.11576 h -0.214974 v 0.11575 h -0.115756 v 0.11576 h -0.23151 v 0.0992 h -0.09922 v 0.11576 h -0.115755 v 0.11575 h -0.115755 v 0.11576 h -0.115755 v 0.11575 h -0.115755 v 0.0992 h -0.09922 v 0.23151 h -0.115755 v 0.23151 h -0.115756 v 0.44649 h -0.115755 v 0.11575 h -0.115755 v 1.33946 h 0.115755 v 0.23151 h 0.115755 v 0.11575 h 0.115756 v 0.0992 h 0.115755 v 0.11576 h 0.330729 v 0.11575 h 0.330729 v -0.11575 h 0.347266 v 0.11575 h 1.455208 v -0.11575 h 1.802474 v -0.11576 h 0.330729 v -0.0992 h 0.115755 v -0.11575 h 0.115755 v -0.11576 h 0.115756 v -0.23151 h 0.115755 v -0.56224 h -0.115755 v -0.66146 h -0.115756 v -0.79375 h -0.115755 v -0.11575 h -0.115755 v -0.11576 h -0.09922 v -0.0992 h -0.115755 v -0.11575 h -0.23151 v -0.11576 h -0.115756 v -0.11575 h -0.09922 v -0.11576 h -0.115756 v -0.0992 h -0.115755 v -0.11576 h -0.115755 v -0.11575 h -0.214974 v -0.11576 h -0.23151 v -0.11576 h -0.231511 v -0.11575 z m -1.570963,6.20117 v 0.0992 h -0.330729 v 0.11575 h -0.231511 v 0.11576 h -0.446484 v 0.11576 h -0.23151 v 0.11575 h -0.115756 v 0.0992 h -0.115755 v 0.11575 h -0.09922 v 1.24024 h 0.09922 v 0.56224 h 0.115755 v 0.23151 h 0.115756 v 0.21497 h 0.115755 v 0.11576 h 0.115755 v 0.11575 h 0.09922 v 0.11576 h 0.115755 v 0.11575 h 0.115755 v 0.0992 h 0.115755 v 0.11576 h 0.115756 v 0.11575 h 0.115755 v 0.11576 h 0.09922 v 0.11575 h 0.23151 v 0.0992 h 0.115755 v 0.11576 h 0.214974 v 0.11575 h 0.23151 v 0.11576 h 0.231511 v 0.11575 h 0.446484 v 0.0992 h 0.892969 v 0.11576 h 1.570963 v -0.11576 h 0.56224 v -0.0992 h 0.347266 v -0.11575 h 0.214974 v -0.11576 h 0.115755 v -0.11575 h 0.115755 v -0.11576 h 0.115755 v -0.0992 h 0.115755 v -0.11575 h 0.09922 v -0.23151 h 0.115755 v -0.11576 h 0.115755 v -0.21497 h 0.115756 v -0.23151 h 0.115755 v -0.21498 h 0.09922 v -0.23151 h 0.115755 v -0.33073 h 0.115755 v -0.11575 h 0.115755 v -0.23151 h 0.115755 v -0.11576 h 0.09922 v -0.0992 h 0.115755 v -0.79375 h -0.115755 v -0.23151 h -0.09922 v -0.11575 h -0.115755 v -0.0992 h -0.115755 v -0.11575 h -0.330729 v -0.11576 h -0.56224 v -0.11576 h -3.489192 v -0.11575 h -1.240235 v -0.0992 z" />
        <path
           id="path46"
           style="font-style:normal;font-variant:normal;font-weight:normal;font-stretch:normal;font-size:33.86666489px;font-family:Wripetyter;-inkscape-font-specification:'Wripetyter, Normal';font-variant-ligatures:normal;font-variant-caps:normal;font-variant-numeric:normal;font-feature-settings:normal;text-align:start;writing-mode:lr-tb;text-anchor:start;fill:#444444;fill-opacity:1;stroke-width:0.26458332"
           d="m 74.781171,279.45248 h 1.008724 v 0.11575 h 0.56224 v 0.11576 h 0.446484 v 0.11575 h 0.330729 v 0.0992 h 0.347266 v 0.11576 h 0.214974 v 0.11575 h 0.562239 v 0.11576 h 0.231511 v 0.11575 h 0.115755 v 0.0992 h 0.214974 v 0.11576 h 0.115755 v 0.23151 h 0.115755 v 0.21497 h 0.115755 v 0.34727 h 0.115756 v 0.44648 h 0.09922 v 0.23151 h 0.115756 v 0.21497 h 0.115755 v 0.23152 h 0.115755 v 0.23151 h 0.115755 v 0.33072 h 0.09922 v 0.33073 h 0.115755 v 0.23151 h 0.115755 v 0.11576 h 0.115755 v 0.21497 h 0.115756 v 0.11576 h 0.115755 v 0.11575 h 0.09922 v 0.23151 h 0.115755 v 0.0992 h 0.115755 v 0.34727 h 0.115755 v 0.56224 h 0.115755 v 0.21497 h 0.09922 v 0.34727 h -0.09922 v 1.68672 h -0.115755 v 0.33073 h -0.115755 v 0.11575 h -0.115755 v 0.11576 h -0.115755 v 0.11575 h -0.09922 v 1.00872 h 0.09922 v 0.23152 h 0.115755 v 0.0992 h 0.115755 v 0.11576 h 0.115755 v 0.11575 h 0.115755 v 0.23151 h 0.09922 v 0.21498 h 0.115755 v 1.12448 H 81.18078 v 0.44648 h -0.09922 v 0.34727 h -0.115755 v 0.21497 h -0.115755 v 0.23151 h -0.115755 v 0.23151 h -0.115755 v 0.21498 h -0.09922 v 0.11575 h -0.115755 v 0.11576 h -0.115756 v 0.21497 h -0.115755 v 0.11576 h -0.115755 v 0.11575 h -0.115755 v 0.23151 h -0.09922 v 0.0992 h -0.115755 v 0.11576 h -0.115755 v 0.11575 h -0.115755 v 0.11576 h -0.115756 v 0.11575 h -0.09922 v 0.0992 h -0.115756 v 0.11576 h -0.23151 v 0.11575 h -0.115755 v 0.11576 h -0.214974 v 0.11575 h -0.115755 v 0.0992 h -0.115756 v 0.11575 h -0.214974 v 0.11576 h -0.23151 v 0.11576 h -0.23151 v 0.11575 h -0.777214 v 0.0992 h -1.471745 v -0.0992 h -0.214974 v -0.11575 h -0.23151 v -0.11576 h -1.240234 v -0.11576 h -0.09922 v -0.11575 h -0.23151 v -0.0992 h -0.115756 v -0.11575 h -0.214974 v -0.11576 h -0.23151 v -0.11575 h -0.23151 v -0.11576 h -0.214974 v -0.0992 h -0.231511 v -0.11575 h -0.115755 v -0.11576 h -0.115755 v -0.11575 h -0.09922 v -0.11576 h -0.23151 v -0.0992 h -0.115755 v -0.11575 h -0.115756 v -0.11576 h -0.09922 v -0.11575 h -0.115756 v -0.11576 h -0.115755 v -0.0992 h -0.115755 v -0.11575 h -0.115755 v -0.56224 h -0.09922 v -0.44649 h -0.115755 v -0.11575 h -0.115755 v -0.23151 h -0.115756 v -0.11576 h -0.115755 v -0.0992 h -0.09922 v -0.23151 h -0.115755 v -0.23151 h -0.115755 v -0.21497 h -0.115755 v -0.34727 h -0.115755 v -1.22369 h -0.09922 v -0.34727 h -0.115755 v -0.33073 h 0.115755 v -0.46302 h 0.09922 v -0.33073 h -0.09922 v -0.44648 h -0.115755 v -1.68672 H 69.37375 v -0.678 h 0.115755 v -0.33073 h 0.115755 v -0.23151 h 0.09922 v -0.33073 h 0.115755 v -0.46302 h 0.115755 v -0.21497 h 0.115755 v -0.11576 h 0.115755 v -0.23151 h 0.09922 v -0.0992 h 0.115755 v -0.11575 h 0.115756 v -0.23151 h 0.115755 v -0.44648 h 0.115755 v -0.23152 h 0.09922 v -0.21497 h 0.115755 v -0.23151 h 0.115755 v -0.11575 h 0.115755 v -0.11576 h 0.214974 v -0.0992 h 0.231511 v -0.11575 h 0.115755 v -0.23151 h 0.115755 v -0.21498 h 0.09922 v -0.23151 h 0.115755 v -0.11575 h 0.115755 v -0.11576 h 0.115756 v -0.0992 h 0.115755 v -0.11575 h 0.09922 v -0.11576 h 0.231511 v -0.11575 h 0.23151 v -0.11576 h 0.214974 v -0.0992 h 0.463021 v -0.11575 h 0.56224 v -0.11576 h 0.562239 z m 0.214974,2.69544 v 0.11575 h -0.330729 v 0.11576 H 74.31815 v 0.11576 h -0.214974 v 0.11575 h -0.115755 v 0.11576 h -0.23151 v 0.0992 h -0.09922 v 0.11576 h -0.115755 v 0.11575 h -0.115755 v 0.11576 h -0.115756 v 0.11575 h -0.115755 v 0.0992 h -0.09922 v 0.23151 h -0.115755 v 0.23151 h -0.115755 v 0.44649 h -0.115755 v 0.11575 h -0.115755 v 1.33946 h 0.115755 v 0.23151 h 0.115755 v 0.11575 h 0.115755 v 0.0992 h 0.115755 v 0.11576 h 0.33073 v 0.11575 h 0.330729 v -0.11575 h 0.347265 v 0.11575 h 1.455209 v -0.11575 h 1.802473 v -0.11576 h 0.33073 v -0.0992 h 0.115755 v -0.11575 h 0.115755 v -0.11576 h 0.115755 v -0.23151 h 0.115755 v -0.56224 h -0.115755 v -0.66146 h -0.115755 v -0.79375 h -0.115755 v -0.11575 h -0.115755 v -0.11576 h -0.09922 v -0.0992 h -0.115755 v -0.11575 h -0.231511 v -0.11576 h -0.115755 v -0.11575 h -0.09922 v -0.11576 h -0.115755 v -0.0992 h -0.115755 v -0.11576 h -0.115755 v -0.11575 H 76.46789 v -0.11576 h -0.231511 v -0.11576 h -0.23151 v -0.11575 z m -1.570963,6.20117 v 0.0992 h -0.33073 v 0.11575 h -0.23151 v 0.11576 h -0.446484 v 0.11576 h -0.231511 v 0.11575 h -0.115755 v 0.0992 h -0.115755 v 0.11575 h -0.09922 v 1.24024 h 0.09922 v 0.56224 h 0.115755 v 0.23151 h 0.115755 v 0.21497 h 0.115756 v 0.11576 h 0.115755 v 0.11575 h 0.09922 v 0.11576 h 0.115756 v 0.11575 h 0.115755 v 0.0992 h 0.115755 v 0.11576 h 0.115755 v 0.11575 h 0.115755 v 0.11576 h 0.09922 v 0.11575 h 0.231511 v 0.0992 h 0.115755 v 0.11576 h 0.214974 v 0.11575 h 0.23151 v 0.11576 h 0.231511 v 0.11575 h 0.446484 v 0.0992 h 0.892969 v 0.11576 h 1.570963 v -0.11576 h 0.56224 v -0.0992 h 0.347265 v -0.11575 h 0.214974 v -0.11576 h 0.115755 v -0.11575 h 0.115756 v -0.11576 h 0.115755 v -0.0992 h 0.115755 v -0.11575 h 0.09922 v -0.23151 h 0.115755 v -0.11576 h 0.115755 v -0.21497 h 0.115755 v -0.23151 h 0.115756 v -0.21498 h 0.09922 v -0.23151 h 0.115756 v -0.33073 h 0.115755 v -0.11575 h 0.115755 v -0.23151 h 0.115755 v -0.11576 h 0.09922 v -0.0992 h 0.115755 v -0.79375 h -0.115755 v -0.23151 h -0.09922 v -0.11575 h -0.115755 v -0.0992 h -0.115755 v -0.11575 h -0.330729 v -0.11576 h -0.56224 v -0.11576 h -3.489193 v -0.11575 h -1.240234 v -0.0992 z" />
        <path
           id="path48"
           style="font-style:normal;font-variant:normal;font-weight:normal;font-stretch:normal;font-size:33.86666489px;font-family:Wripetyter;-inkscape-font-specification:'Wripetyter, Normal';font-variant-ligatures:normal;font-variant-caps:normal;font-variant-numeric:normal;font-feature-settings:normal;text-align:start;writing-mode:lr-tb;text-anchor:start;fill:#444444;fill-opacity:1;stroke-width:0.26458332"
           d="m 95.567499,272.22604 h 0.677995 v 0.11576 h 0.231511 v 0.11576 h 0.115755 v 0.11575 h 0.115755 v 0.23151 h 0.115755 v 0.69453 h 0.115755 v 0.46302 h 0.115756 v 0.0992 h 0.115755 v 0.34727 h -0.115755 v 0.23151 h -0.115756 v 0.46302 H 96.82427 v 0.57877 h -0.115755 v 0.46303 H 96.59276 v 0.57877 h 0.115755 v 0.46302 h 0.115755 v 0.44649 h 0.115755 v 0.46302 H 96.82427 v 0.57877 h -0.115755 v 0.57878 h 0.115755 v 0.34726 h 0.115755 v 0.69454 H 96.82427 v 0.9095 h 0.115755 v 0.34727 H 96.82427 v 1.15755 h 0.115755 v 0.34726 h 0.115756 v 0.34727 h 0.115755 v 1.0418 h -0.115755 v 1.02526 h 0.115755 v 0.34726 h -0.115755 v 0.23151 h -0.115756 v 0.23151 H 96.82427 v 0.57878 h -0.115755 v 0.46302 H 96.59276 v 0.79375 h 0.115755 v 0.34727 h 0.115755 v 0.34726 h 0.115755 v 0.46302 h 0.115756 v 0.57878 h -0.115756 v 0.34726 H 96.82427 v 0.57878 h 0.115755 v 0.34727 h 0.115756 v 0.56224 h -0.115756 v 0.92604 h 0.115756 v 0.46302 h -0.115756 v 1.27331 h 0.115756 v 0.57877 h 0.115755 v 0.11576 h -0.115755 v 0.33073 h -0.115756 v 0.23151 H 96.82427 v 0.11575 h -0.115755 v 0.23151 H 96.59276 v 0.23151 h -0.115755 v 0.23151 h -0.115756 v 0.11576 h -0.115755 v 0.11575 h -0.115755 v 0.11576 h -0.115755 v 0.11575 h -0.446485 v -0.11575 h -0.115755 v -0.11576 h -0.115755 v -0.11575 h -0.115755 v -0.11576 h -0.115755 v -0.11575 h -0.115756 v -0.11576 h -0.115755 v -0.11575 h -0.115755 v -0.11576 h -0.115755 v -0.11575 h -0.115755 v -0.34727 h 0.115755 v -0.11575 h 0.115755 v -0.11576 h 0.115755 v -0.21497 h 0.115755 v -0.46302 h -0.115755 v -1.38907 h -0.115755 v -0.34726 h -0.115755 v -0.34727 h 0.115755 v -1.71979 h -0.115755 v -0.23151 h -0.115755 v -0.11576 h -0.115756 v -0.23151 h -0.115755 v -0.23151 h -0.115755 v -0.23151 h 0.115755 v -0.23151 h 0.115755 v -0.11575 h 0.115756 v -0.92604 h -0.115756 v -0.11576 h 0.115756 v -0.44648 h 0.115755 v -0.46302 h -0.115755 v -0.34727 h -0.115756 v -0.46302 h 0.115756 v -0.34727 h 0.115755 v -0.34726 h 0.115755 v -0.92604 h -0.115755 v -0.23151 h -0.115755 v -0.23151 h -0.115756 v -0.0992 h -0.115755 v -0.46302 h 0.115755 v -0.23151 h 0.115756 v -0.23151 h 0.115755 v -0.34727 h -0.115755 v -0.69453 h 0.115755 v -1.15755 h -0.115755 v -0.11576 h 0.115755 v -0.44648 h 0.115755 v -1.38907 h -0.115755 v -0.23151 h -0.115755 v -0.11575 h -0.115756 v -0.23151 h -0.115755 v -0.57878 h 0.115755 v -0.23151 h 0.115756 v -0.9095 h -0.115756 v -0.11576 h 0.115756 v -1.27331 h -0.115756 v -0.46302 h 0.115756 v -0.34726 h 0.115755 v -0.34727 h 0.115755 v -1.02526 h -0.115755 v -0.23151 h -0.115755 v -0.23151 h 0.115755 v -0.11575 h 0.23151 v -0.11576 h 0.347266 v -0.11575 h 0.115755 v -0.11576 h 0.115755 v -0.23151 h 0.115755 z" />
        <path
           id="path50"
           style="font-style:normal;font-variant:normal;font-weight:normal;font-stretch:normal;font-size:33.86666489px;font-family:Wripetyter;-inkscape-font-specification:'Wripetyter, Normal';font-variant-ligatures:normal;font-variant-caps:normal;font-variant-numeric:normal;font-feature-settings:normal;text-align:start;writing-mode:lr-tb;text-anchor:start;fill:#444444;fill-opacity:1;stroke-width:0.26458332"
           d="m 115.47739,279.65091 h 0.5457 v 0.11576 h 0.23151 v 0.0992 h 0.89297 v 0.11575 h 0.87643 v -0.11575 h 0.56224 v 0.11575 h 0.77722 v -0.11575 h 1.55442 v -0.0992 h 0.23151 v -0.11576 h 0.33073 v 0.11576 h 0.21498 v 0.0992 h 0.66146 v 0.11575 h 0.44648 v 0.11576 h 0.23151 v 0.11575 h 0.21497 v 0.0992 h 0.11576 v 0.11576 h 0.21497 v 0.11575 h 0.11576 v 0.0992 h 0.11575 v 0.23151 h 0.0992 v 0.11576 h 0.11576 v 0.21497 h 0.11575 v 0.11576 h 0.11576 v 0.0992 h 0.0992 v 0.23151 h 0.11575 v 0.33072 h 0.11576 v 0.33073 h 0.11575 v 0.56224 h 0.0992 v 0.66146 h 0.11576 v 0.56224 h 0.11575 v 0.44649 h 0.0992 v 1.10794 h 0.11576 v 0.5457 h -0.11576 v 0.23151 h -0.0992 v 0.11576 h -0.11575 v 0.77721 h 0.11575 v 0.21497 h 0.0992 v 0.21498 h 0.11576 v 0.34726 h 0.11575 v 0.33073 h 0.11576 v 0.21498 h -0.11576 v 1.45521 h -0.11575 v 0.87643 h 0.11575 v 0.33073 h 0.11576 v 0.34726 h 0.0992 v 0.0992 h -0.0992 v 0.23151 h -0.11576 v 0.87643 h 0.11576 v 0.23151 h 0.0992 v 0.21498 h 0.11575 v 0.33073 h 0.11576 v 0.34726 h 0.0992 v 0.21498 h 0.11576 v 0.44648 h 0.11576 v 0.89297 h -0.11576 v 0.0992 h -0.11576 v 0.11575 h -0.5457 v 0.0992 h -0.56224 v 0.11576 h -0.21497 v 0.11575 h -0.23151 v 0.11576 h -0.33073 v -0.11576 h -0.21498 v -0.11575 h -0.23151 v -0.11576 h -0.21497 v -0.0992 h -0.11576 v -0.11575 h -0.11575 v -0.0992 h -0.21497 v -0.11576 h -0.11576 v -0.11575 h -0.0992 v -0.0992 h -0.23151 v -0.11575 h -0.33073 v -0.11576 h -0.56224 v -0.11575 h -0.87643 v 0.11575 h -0.23151 v 0.11576 h -0.0992 v 0.11575 h -0.11575 v 0.0992 h -0.11576 v 0.11575 h -0.33073 v 0.11576 h -0.56224 v 0.0992 h -0.21497 v 0.11575 h -0.11576 v 0.0992 H 118.702 v 0.11576 h -0.77721 v -0.11576 h -0.33073 v -0.0992 h -0.678 v 0.0992 h -0.89297 v -0.0992 h -0.87643 v 0.0992 h -0.33073 v -0.0992 h -0.44648 v -0.11575 h -0.33073 v 0.11575 h -0.34727 v 0.0992 h -0.21497 v 0.11576 h -0.11576 v 0.11575 h -0.66145 v -0.11575 h -0.21498 v -0.11576 h -0.34726 v -0.0992 h -0.77722 v 0.0992 h -0.33073 v -0.0992 h -0.21497 v -0.11575 h -0.23151 v -0.0992 h -0.21498 v -0.11576 h -0.11575 v -0.11575 h -0.11576 v -0.0992 h -0.0992 v -0.23151 h -0.11576 v -0.33073 h 0.11576 v -0.56224 h 0.0992 v -0.33073 h 0.11576 v -0.11575 h 0.11575 v -0.21498 h 0.11576 v -0.21497 h 0.0992 v -0.34727 h 0.11575 v -0.42994 h 0.11576 v -0.34727 h 0.0992 v -0.33073 h 0.11575 v -0.21497 h 0.11576 v -0.23151 h 0.11575 v -0.42995 h 0.0992 v -1.33945 h -0.0992 v -0.33073 h -0.11575 v -0.89297 h 0.11575 v -0.99219 h -0.11575 v -1.00872 h 0.11575 v -1.2237 h -0.11575 v -0.33073 h -0.11576 v -0.66146 h -0.11575 v -0.44648 h -0.0992 v -0.11576 h -0.11576 v -0.21497 h -0.11575 v -0.11576 h -0.0992 v -0.11575 h -0.11576 v -0.0992 h -0.11575 v -0.11576 h -0.11576 v -0.23151 h -0.0992 v -1.32291 h 0.0992 v -0.77722 h 0.11576 v -0.11575 h 0.11575 v -0.11576 h 0.11576 v -0.0992 h 0.33073 v -0.11575 h 0.33073 v -0.11576 h 1.33945 v -0.11575 h 0.42995 v -0.0992 h 2.56315 z m -0.66146,3.22461 v 0.11576 h -0.23151 v 0.0992 h -0.11575 v 0.11575 h -0.21498 v 0.11576 h -0.21497 v 0.0992 h -0.23151 v 0.11575 h -0.11576 v 0.11576 h -0.0992 v 0.21497 h -0.11575 v 0.11576 h -0.11576 v 0.21497 h -0.0992 v 0.23151 h -0.11575 v 0.11576 h -0.11576 v 0.33072 h -0.11575 v 0.77722 h -0.0992 v 1.2237 h 0.0992 v 0.5457 h 0.11575 v 2.11667 h 0.11576 v 1.22369 h 0.11575 v 0.66146 h 0.0992 v 0.33073 h 0.11576 v 0.23151 h 0.11575 v 0.21498 h 0.0992 v 0.11575 h 0.11576 v 0.21497 h 0.11575 v 0.11576 h 0.11576 v 0.11576 h 0.0992 v 0.0992 h 0.23151 v 0.11576 h 0.0992 v 0.11575 h 0.34726 v 0.11576 h 0.66146 v -0.11576 h 0.44648 v -0.11575 h 0.0992 v -0.11576 h 0.23151 v -0.0992 h 0.11576 v -0.11576 h 0.0992 v -0.11576 h 0.11575 v -0.0992 h 0.11576 v -0.11576 h 0.11575 v -0.23151 h 0.0992 v -0.21497 h 0.11576 v -2.4474 h 0.11575 v -3.10885 h -0.11575 v -0.89297 h -0.11576 v -0.99219 h 0.11576 v -0.77721 h -0.11576 v -0.11576 h -0.0992 v -0.11575 h -0.11575 v -0.0992 h -0.23151 v -0.11576 h -0.21498 v -0.11575 h -0.44648 v -0.0992 h -0.33073 v -0.11576 z m 5.65547,0.11576 v 0.0992 h -0.21497 v 0.11575 h -0.23151 v 0.11576 h -0.0992 v 0.0992 h -0.11576 v 0.23151 h -0.11575 v 0.21497 h -0.11576 v 0.678 h -0.0992 v 0.87643 h -0.11575 v 0.77721 h -0.11576 v 0.77721 h -0.0992 v 3.00964 h -0.11575 v 1.10794 h 0.11575 v 0.21498 h 0.0992 v 0.23151 h 0.11576 v 0.21497 h 0.11575 v 0.23151 h 0.0992 v 0.33073 h 0.11576 v 0.21497 h 0.11575 v 0.23152 h 0.11576 v 0.0992 h 0.21497 v 0.11576 h 0.11576 v 0.11575 h 0.33073 v 0.11576 h 1.22369 v -0.11576 h 0.33073 v -0.11575 h 0.11576 v -0.11576 h 0.21497 v -0.0992 h 0.11576 v -0.11576 h 0.11575 v -0.11576 h 0.0992 v -0.21497 h 0.11576 v -0.11575 h 0.11575 v -0.21498 h 0.0992 v -0.23151 h 0.11575 v -0.21497 h 0.11576 v -1.55443 h -0.11576 v -0.33073 h -0.11575 v -0.23151 h -0.0992 v -0.5457 h 0.0992 v -0.34727 h 0.11575 v -0.66146 h -0.11575 v -0.44648 h -0.0992 v -1.10794 h -0.11575 v -0.33073 h -0.11576 v -0.23151 h -0.0992 v -0.21498 h -0.11575 v -0.21497 h -0.11576 v -0.23151 h -0.11575 v -0.21498 h -0.0992 v -0.33072 h -0.11576 v -0.44649 h -0.11575 v -0.33073 h -0.0992 v -0.23151 h -0.11576 v -0.11575 h -0.11575 v -0.0992 h -0.11576 v -0.11576 h -0.0992 v -0.11575 h -0.33073 v -0.0992 z" />
        <path
           id="path52"
           style="font-style:normal;font-variant:normal;font-weight:normal;font-stretch:normal;font-size:33.86666489px;font-family:Wripetyter;-inkscape-font-specification:'Wripetyter, Normal';font-variant-ligatures:normal;font-variant-caps:normal;font-variant-numeric:normal;font-feature-settings:normal;text-align:start;writing-mode:lr-tb;text-anchor:start;fill:#444444;fill-opacity:1;stroke-width:0.26458332"
           d="m 133.32023,279.45248 h 1.00872 v 0.11575 h 0.56224 v 0.11576 h 0.44648 v 0.11575 h 0.33073 v 0.0992 h 0.34727 v 0.11576 h 0.21497 v 0.11575 h 0.56224 v 0.11576 h 0.23151 v 0.11575 h 0.11576 v 0.0992 h 0.21497 v 0.11576 h 0.11576 v 0.23151 h 0.11575 v 0.21497 h 0.11576 v 0.34727 h 0.11575 v 0.44648 h 0.0992 v 0.23151 h 0.11576 v 0.21497 h 0.11575 v 0.23152 h 0.11576 v 0.23151 h 0.11575 v 0.33072 h 0.0992 v 0.33073 h 0.11576 v 0.23151 h 0.11575 v 0.11576 h 0.11576 v 0.21497 h 0.11575 v 0.11576 h 0.11576 v 0.11575 h 0.0992 v 0.23151 h 0.11575 v 0.0992 h 0.11576 v 0.34727 h 0.11575 v 0.56224 h 0.11576 v 0.21497 h 0.0992 v 0.34727 h -0.0992 v 1.68672 h -0.11576 v 0.33073 h -0.11575 v 0.11575 h -0.11576 v 0.11576 h -0.11575 v 0.11575 h -0.0992 v 1.00872 h 0.0992 v 0.23152 h 0.11575 v 0.0992 h 0.11576 v 0.11576 h 0.11575 v 0.11575 h 0.11576 v 0.23151 h 0.0992 v 0.21498 h 0.11575 v 1.12448 h -0.11575 v 0.44648 h -0.0992 v 0.34727 h -0.11576 v 0.21497 h -0.11575 v 0.23151 h -0.11576 v 0.23151 h -0.11575 v 0.21498 h -0.0992 v 0.11575 h -0.11576 v 0.11576 h -0.11575 v 0.21497 h -0.11576 v 0.11576 h -0.11575 v 0.11575 h -0.11576 v 0.23151 h -0.0992 v 0.0992 h -0.11575 v 0.11576 h -0.11576 v 0.11575 h -0.11575 v 0.11576 h -0.11576 v 0.11575 h -0.0992 v 0.0992 h -0.11575 v 0.11576 h -0.23151 v 0.11575 h -0.11576 v 0.11576 h -0.21497 v 0.11575 h -0.11576 v 0.0992 h -0.11575 v 0.11575 h -0.21498 v 0.11576 h -0.23151 v 0.11576 h -0.23151 v 0.11575 h -0.77721 v 0.0992 h -1.47175 v -0.0992 h -0.21497 v -0.11575 h -0.23151 v -0.11576 h -1.24023 v -0.11576 h -0.0992 v -0.11575 h -0.23151 v -0.0992 h -0.11576 v -0.11575 h -0.21497 v -0.11576 H 131.402 v -0.11575 h -0.23151 v -0.11576 h -0.21498 v -0.0992 H 130.724 v -0.11575 h -0.11575 v -0.11576 h -0.11576 v -0.11575 h -0.0992 v -0.11576 h -0.23151 v -0.0992 h -0.11575 v -0.11575 h -0.11576 v -0.11576 h -0.0992 v -0.11575 h -0.11575 v -0.11576 h -0.11576 v -0.0992 h -0.11575 v -0.11575 h -0.11576 v -0.56224 h -0.0992 v -0.44649 h -0.11575 v -0.11575 h -0.11576 v -0.23151 h -0.11575 v -0.11576 h -0.11576 v -0.0992 h -0.0992 v -0.23151 h -0.11575 v -0.23151 h -0.11576 v -0.21497 h -0.11575 v -0.34727 h -0.11576 v -1.22369 h -0.0992 v -0.34727 h -0.11575 v -0.33073 h 0.11575 v -0.46302 h 0.0992 v -0.33073 h -0.0992 v -0.44648 h -0.11575 v -1.68672 h -0.11576 v -0.678 h 0.11576 v -0.33073 h 0.11575 v -0.23151 h 0.0992 v -0.33073 h 0.11576 v -0.46302 h 0.11575 v -0.21497 h 0.11576 v -0.11576 h 0.11575 v -0.23151 h 0.0992 v -0.0992 h 0.11576 v -0.11575 h 0.11575 v -0.23151 h 0.11576 v -0.44648 h 0.11575 v -0.23152 h 0.0992 v -0.21497 h 0.11576 v -0.23151 h 0.11575 v -0.11575 h 0.11576 v -0.11576 h 0.21497 v -0.0992 h 0.23151 v -0.11575 h 0.11576 v -0.23151 h 0.11575 v -0.21498 h 0.0992 v -0.23151 h 0.11576 v -0.11575 h 0.11575 v -0.11576 h 0.11576 v -0.0992 h 0.11575 v -0.11575 h 0.0992 v -0.11576 h 0.23151 v -0.11575 h 0.23151 v -0.11576 h 0.21498 v -0.0992 h 0.46302 v -0.11575 h 0.56224 v -0.11576 h 0.56224 z m 0.21497,2.69544 v 0.11575 h -0.33073 v 0.11576 h -0.34726 v 0.11576 h -0.21498 v 0.11575 h -0.11575 v 0.11576 h -0.23151 v 0.0992 h -0.0992 v 0.11576 h -0.11576 v 0.11575 h -0.11575 v 0.11576 h -0.11576 v 0.11575 h -0.11575 v 0.0992 h -0.0992 v 0.23151 h -0.11576 v 0.23151 H 131.402 v 0.44649 h -0.11576 v 0.11575 h -0.11575 v 1.33946 h 0.11575 v 0.23151 h 0.11576 v 0.11575 h 0.11575 v 0.0992 h 0.11576 v 0.11576 h 0.33073 v 0.11575 h 0.33073 v -0.11575 h 0.34726 v 0.11575 h 1.45521 v -0.11575 h 1.80247 v -0.11576 h 0.33073 v -0.0992 h 0.11576 v -0.11575 h 0.11575 v -0.11576 h 0.11576 v -0.23151 h 0.11575 v -0.56224 h -0.11575 v -0.66146 h -0.11576 v -0.79375 h -0.11575 v -0.11575 h -0.11576 v -0.11576 h -0.0992 v -0.0992 h -0.11575 v -0.11575 h -0.23151 v -0.11576 h -0.11576 v -0.11575 h -0.0992 v -0.11576 h -0.11575 v -0.0992 h -0.11576 v -0.11576 h -0.11575 v -0.11575 h -0.21498 v -0.11576 h -0.23151 v -0.11576 h -0.23151 v -0.11575 z m -1.57096,6.20117 v 0.0992 h -0.33073 v 0.11575 H 131.402 v 0.11576 h -0.44649 v 0.11576 H 130.724 v 0.11575 h -0.11575 v 0.0992 h -0.11576 v 0.11575 h -0.0992 v 1.24024 h 0.0992 v 0.56224 h 0.11576 v 0.23151 h 0.11575 v 0.21497 h 0.11576 v 0.11576 h 0.11575 v 0.11575 h 0.0992 v 0.11576 h 0.11576 v 0.11575 h 0.11575 v 0.0992 h 0.11576 v 0.11576 h 0.11575 v 0.11575 h 0.11576 v 0.11576 h 0.0992 v 0.11575 h 0.23151 v 0.0992 h 0.11575 v 0.11576 h 0.21498 v 0.11575 h 0.23151 v 0.11576 h 0.23151 v 0.11575 h 0.44648 v 0.0992 h 0.89297 v 0.11576 h 1.57096 v -0.11576 h 0.56224 v -0.0992 h 0.34727 v -0.11575 h 0.21497 v -0.11576 h 0.11576 v -0.11575 h 0.11575 v -0.11576 h 0.11576 v -0.0992 h 0.11575 v -0.11575 h 0.0992 v -0.23151 h 0.11576 v -0.11576 h 0.11575 v -0.21497 h 0.11576 v -0.23151 h 0.11575 v -0.21498 h 0.0992 v -0.23151 h 0.11576 v -0.33073 h 0.11575 v -0.11575 h 0.11576 v -0.23151 h 0.11575 v -0.11576 h 0.0992 v -0.0992 h 0.11576 v -0.79375 h -0.11576 v -0.23151 h -0.0992 v -0.11575 h -0.11575 v -0.0992 h -0.11576 v -0.11575 h -0.33073 v -0.11576 h -0.56224 v -0.11576 h -3.48919 v -0.11575 h -1.24023 v -0.0992 z" />
        <path
           id="path54"
           style="font-style:normal;font-variant:normal;font-weight:normal;font-stretch:normal;font-size:33.86666489px;font-family:Wripetyter;-inkscape-font-specification:'Wripetyter, Normal';font-variant-ligatures:normal;font-variant-caps:normal;font-variant-numeric:normal;font-feature-settings:normal;text-align:start;writing-mode:lr-tb;text-anchor:start;fill:#444444;fill-opacity:1;stroke-width:0.26458332"
           d="m 145.27609,274.90495 h 0.34727 v 0.11576 h 0.24805 v 0.11575 h 0.11575 v 0.11576 h 0.11576 v 0.11575 h 0.11575 v 0.24805 h 0.11576 v 0.23151 h 0.11575 v 0.71107 h 0.11576 v 0.69453 h 0.11575 v 0.47956 h 0.13229 v 0.34726 h 0.11576 v 0.47956 h 0.11575 v 0.23151 h 0.11576 v 0.11575 h 0.11575 v 0.11576 h 0.11576 v 0.13229 h 0.24805 v 0.11576 h 0.34726 v 0.11575 h 0.46302 v 0.11576 h 1.07487 v -0.11576 h 0.23151 v 0.11576 h 0.23151 v 0.11575 h 0.11576 v 0.23151 h 0.11575 v 0.3638 h 0.1323 v 0.71107 h -0.1323 v 0.23151 h -0.11575 v 0.11576 h -0.11576 v 0.11575 h -0.11575 v 0.11576 h -0.23151 v 0.11575 h -0.3638 v 0.13229 h -0.94258 v 0.11576 h -0.34727 v 0.11575 h -0.34726 v 0.11576 h -0.13229 v 0.11576 H 147.277 v 0.11575 h -0.11575 v 0.11576 h -0.11576 v 0.24804 h -0.11575 v 0.11576 h -0.11576 v 0.34726 h -0.13229 v 4.59714 h 0.13229 v 1.07487 h -0.13229 v 1.88515 h 0.13229 v 0.34727 h 0.11576 v 0.23151 h 0.11575 v 0.24805 h 0.11576 v 0.11575 h 0.11575 v 0.11576 h 0.11576 v 0.11575 h 0.11576 v 0.11576 h 0.24804 v 0.11575 h 0.11576 v 0.13229 h 0.34726 v 0.11576 h 1.30638 v -0.11576 h 0.46302 v -0.13229 h 0.11576 v -0.11575 h 0.24805 v -0.11576 h 0.11575 v -0.11575 h 0.11576 v -0.11576 h 0.11575 v -0.11575 h 0.11576 v -0.11576 h 0.11575 v -0.13229 h 0.24805 v -0.11575 h 0.11575 v 0.11575 h 0.23151 v 0.13229 h 0.11576 v 0.11576 h 0.11575 v 0.11575 h 0.11576 v 0.82683 h -0.11576 v 0.34726 h -0.11575 v 0.3638 h -0.11576 v 0.69453 h -0.11575 v 0.59532 h -0.11576 v 0.23151 h -0.11575 v 0.11575 h -0.13229 v 0.13229 h -0.11576 v 0.11576 h -0.11575 v 0.11575 h -0.23151 v 0.11576 h -0.11576 v 0.11575 h -0.11575 v 0.11576 h -0.24805 v 0.11576 h -0.23151 v 0.13229 h -0.34727 v 0.0992 h -3.30729 v -0.0992 h -0.34726 v -0.13229 h -0.1323 v -0.11576 h -0.23151 v -0.11576 h -0.11575 v -0.11575 h -0.11576 v -0.11576 h -0.11575 v -0.11575 h -0.11576 v -0.11576 h -0.13229 v -0.13229 h -0.11575 v -0.23151 h -0.11576 v -0.23151 h -0.11575 v -0.23151 h -0.11576 v -0.24805 h -0.11575 v -0.34726 h -0.11576 v -0.47956 h -0.13229 v -1.28984 h -0.11576 v -1.88516 h -0.11575 v -1.05833 h 0.11575 v -0.3638 h 0.11576 v -0.46302 h -0.11576 v -0.36381 h -0.11575 v -1.17409 h 0.11575 v -0.34726 h 0.11576 v -2.01745 h -0.11576 v -0.23151 h -0.11575 v -0.23151 h -0.11576 v -0.24805 h -0.11575 v -0.23151 h -0.11576 v -0.46302 h -0.11575 v -0.24804 h -0.11576 v -0.11576 h -0.13229 v -0.11575 h -0.11575 v -0.11576 h -0.23152 v -0.11576 h -1.05833 v -0.11575 h -0.23151 v -0.11576 h -0.23151 v -0.13229 h -0.11575 v -0.23151 h -0.1323 v -0.34726 h 0.1323 v -0.47956 h 0.11575 v -0.23151 h 0.11576 v -0.11576 h 0.11575 v -0.11575 h 0.34727 v -0.11576 h 0.46302 v -0.13229 h 0.24804 v -0.11575 h 0.23151 v -0.11576 h 0.23152 v -0.11575 h 0.24804 v -0.11576 h 0.23151 v -0.11575 h 0.11576 v -0.11576 h 0.11575 v -0.13229 h 0.11576 v -0.11576 h 0.11575 v -0.23151 h 0.11576 v -0.59531 h 0.13229 v -0.46302 h 0.11576 v -0.23151 h 0.11575 v -0.24805 h 0.11576 v -1.05833 h -0.11576 v -0.46302 h 0.11576 v -0.24805 h 0.11575 v -0.11575 h 0.11576 v -0.11576 h 0.11575 v -0.11575 h 0.3638 z" />
        <path
           id="path56"
           style="font-style:normal;font-variant:normal;font-weight:normal;font-stretch:normal;font-size:33.86666489px;font-family:Wripetyter;-inkscape-font-specification:'Wripetyter, Normal';font-variant-ligatures:normal;font-variant-caps:normal;font-variant-numeric:normal;font-feature-settings:normal;text-align:start;writing-mode:lr-tb;text-anchor:start;fill:#444444;fill-opacity:1;stroke-width:0.26458332"
           d="m 158.67062,279.28711 h 0.34727 v 0.11576 h 1.60403 v 0.11575 h 0.23152 v 0.11576 h 0.34726 v 0.11575 h 0.23151 v 0.11576 h 0.23151 v 0.11575 h 0.23151 v 0.11576 h 0.11576 v 0.11575 h 0.0992 v 0.11576 h 0.11575 v 0.11575 h 0.11576 v 0.11576 h 0.11575 v 0.23151 h 0.11576 v 0.23151 h 0.11575 v 0.23151 h 0.11576 v 0.23151 h 0.11575 v 0.23151 h 0.11576 v 0.33073 h 0.11575 v 0.23151 h 0.11576 v 0.11576 h 0.11575 v 0.23151 h 0.11576 v 0.23151 h 0.11575 v 0.23151 h 0.11576 v 0.34726 h 0.11575 v 0.46302 h 0.11576 v 0.23151 h -0.11576 v 1.37253 h 0.11576 v 0.69453 h 0.11575 v 0.69453 h 0.11576 v 0.678 h 0.11575 v 0.46302 h -0.11575 v 0.69453 h -0.11576 v 2.29857 h 0.11576 v 0.57877 h 0.11575 v 0.34727 h 0.11576 v 0.33073 h 0.11576 v 0.34726 h 0.11575 v 0.11576 h 0.0992 v 0.11575 h 0.11575 v 0.11576 h 0.11576 v 0.11575 h 0.23151 v 0.11576 h 0.23151 v 0.11575 h 0.11576 v 0.11576 h 0.23151 v 0.11576 h 0.23151 v 0.11575 h 0.11575 v 0.11576 h 0.11576 v 0.11575 h 0.11575 v 0.23151 h 0.11576 v 0.34727 h 0.11575 v 0.11575 h -0.11575 v 0.33073 h -0.11576 v 0.11576 h -0.11575 v 0.11575 h -0.11576 v 0.11576 h -0.11575 v 0.11575 h -0.23151 v 0.11576 h -0.11576 v 0.11575 h -0.11575 v 0.11576 h -0.11576 v 0.11575 h -0.11575 v 0.11576 h -1.14102 v 0.0992 h -0.81029 v -0.0992 h -0.34726 v -0.11576 h -0.23151 v -0.11575 h -0.11576 v -0.11576 h -0.11575 v -0.11575 h -0.23151 v -0.11576 h -0.11576 v -0.11575 h -0.67799 v 0.11575 h -0.81029 v -0.11575 h -1.0418 v 0.11575 h -0.44648 v 0.11576 h -0.11576 v -0.11576 h -0.34726 v 0.11576 h -0.34727 v 0.11575 h -0.23151 v 0.11576 h -0.11575 v 0.11575 h -0.81029 v -0.11575 h -0.23151 v -0.11576 h -0.21497 v -0.11575 h -0.23151 v -0.11576 h -0.57878 v 0.11576 h -0.57878 v -0.11576 h -0.23151 v -0.11575 h -0.23151 v -0.11576 h -0.11575 v -0.11575 h -0.11576 v -0.23151 h -0.23151 v -0.11576 h -0.11575 v -0.0992 h -0.0992 v -0.11575 h -0.11576 v -0.11576 h -0.11575 v -0.11575 h -0.11576 v -0.11576 h -0.11575 v -0.23151 h -0.11576 v -0.23151 h -0.11575 v -0.69453 h -0.11576 v -0.34727 h -0.11575 v -0.46302 h -0.11576 v -0.67799 h -0.11575 v -0.34727 h -0.11576 v -0.69453 h 0.11576 v -0.11575 h 0.11575 v -0.11576 h 0.11576 v -0.23151 h 0.11575 v -0.56224 h 0.11576 v -0.34726 h 0.11575 v -0.23152 h 0.11576 v -0.11575 h 0.11575 v -0.11576 h 0.11576 v -0.11575 h 0.11575 v -0.11576 h 0.11576 v -0.11575 h 0.0992 v -0.11576 h 0.11575 v -0.11575 h 0.11576 v -0.11576 h 0.11575 v -0.11575 h 0.11576 v -0.11576 h 0.11575 v -0.11575 h 0.23151 v -0.11576 h 0.11576 v -0.11575 h 0.11575 v -0.11576 h 0.11576 v -0.11575 h 0.11575 v -0.11576 h 0.11576 v -0.21497 h 0.11575 v -1.15755 h -0.11575 v -0.23151 h -0.11576 v -0.11576 h -0.11575 v -0.23151 h -0.11576 v -0.11576 h -0.11575 v -0.11575 h -0.11576 v -0.11576 h -0.11575 v -0.11575 h -0.11576 v -0.11576 h -0.23151 v -0.11575 h -0.23151 v -0.0992 h -0.11575 v -0.11576 h -0.0992 v -0.23151 h -0.11576 v -0.69453 h 0.11576 v -0.23151 h 0.0992 v -0.34726 h 0.11575 v -0.23151 h 0.11576 v -0.23151 h 0.11575 v -0.23151 h 0.11576 v -0.11576 h 0.11575 v -0.33073 h 0.11576 v -0.34726 h 0.11575 v -0.11576 h 0.11576 v -0.11575 h 0.11575 v -0.11576 h 0.11576 v -0.11576 h 0.11575 v -0.11575 h 0.11576 v -0.11576 h 0.11575 v -0.11575 h 0.23151 v -0.11576 h 0.23152 v -0.11575 h 0.46302 v -0.11576 h 0.44648 v -0.11575 h 0.23151 v -0.11576 h 0.23151 v -0.11575 h 0.23151 v -0.11576 h 0.34727 v -0.11575 h 0.34726 z m -0.69453,2.87735 v 0.11575 h -0.23151 v 0.11576 h -0.23151 v 0.11575 h -0.11575 v 0.11576 h -0.11576 v 0.11575 h -0.11575 v 0.11576 h -0.11576 v 0.11575 h -0.21497 v 0.11576 h -0.11576 v 0.11575 h -0.11575 v 0.11576 h -0.11576 v 1.48828 h 0.11576 v 0.11575 h 0.11575 v 0.11576 h 0.11576 v 0.11575 h 0.0992 v 0.11576 h 0.23152 v 0.11576 h 0.34726 v 0.11575 h 1.27331 v -0.11575 h 0.46302 v -0.11576 h 0.33073 v -0.11576 h 0.23151 v -0.11575 h 0.23151 v -0.11576 h 0.11575 v -0.11575 h 0.11576 v -0.11576 h 0.11575 v -0.23151 h 0.11576 v -0.33073 h 0.11575 v -1.04179 h -0.11575 v -0.23151 h -0.11576 v -0.11576 h -0.11575 v -0.11575 h -0.11576 v -0.11576 h -0.23151 v -0.11575 h -0.23151 v -0.11576 h -0.44648 v -0.11575 z m 1.38906,5.75468 v 0.11576 h -0.46302 v 0.11575 h -0.34726 v 0.11576 h -0.23151 v 0.11575 h -0.46302 v 0.11576 h -0.57878 v 0.11575 h -0.23151 v 0.11576 h -0.11576 v 0.11575 h -0.0992 v 0.23152 h -0.11576 v 0.11575 h -0.11575 v 0.23151 h -0.11576 v 0.0992 h -0.11575 v 0.23151 h -0.11576 v 0.11576 h -0.11576 v 0.23151 h -0.11575 v 0.46302 h -0.11576 v 1.38906 h 0.11576 v 0.21497 h 0.11575 v 0.23151 h 0.11576 v 0.11576 h 0.11576 v 0.11575 h 0.11575 v 0.23151 h 0.11576 v 0.11576 h 0.23151 v 0.11575 h 0.0992 v 0.11576 h 0.23152 v 0.11575 h 0.34726 v 0.11576 h 0.34727 v -0.11576 h 2.06705 v -0.11575 h 0.23151 v -0.11576 h 0.23151 v -0.11575 h 0.11576 v -0.11576 h 0.11575 v -0.11575 h 0.11576 v -0.11576 h 0.11576 v -0.11575 h 0.11575 v -0.11576 h 0.11576 v -0.11575 h 0.11575 v -0.11576 h 0.11576 v -0.0992 h 0.11575 v -0.11575 h 0.11576 v -0.23151 h 0.11575 v -0.23151 h 0.11576 v -0.34727 h 0.11575 v -0.92604 h 0.11576 v -1.02526 h -0.11576 v -0.23151 h -0.11575 v -0.23151 h -0.11576 v -0.23151 h -0.11575 v -0.11576 h -0.11576 v -0.23151 h -0.23151 v -0.11575 h -1.0418 v -0.11576 z" />
        <path
           id="path58"
           style="font-style:normal;font-variant:normal;font-weight:normal;font-stretch:normal;font-size:33.86666489px;font-family:Wripetyter;-inkscape-font-specification:'Wripetyter, Normal';font-variant-ligatures:normal;font-variant-caps:normal;font-variant-numeric:normal;font-feature-settings:normal;text-align:start;writing-mode:lr-tb;text-anchor:start;fill:#444444;fill-opacity:1;stroke-width:0.26458332"
           d="m 168.97283,272.83789 h 2.3151 v 0.11576 h 2.86081 v 0.0992 h 0.42995 v 0.11575 h 0.23151 v 0.11576 h 0.21497 v 0.0992 h 0.11576 v 0.23151 h 0.0992 v 0.21497 h 0.11575 v 0.33073 h 0.11576 v 0.76068 h 0.0992 v 4.18372 h 0.11575 v 0.77721 h -0.11575 v 0.66146 h -0.0992 v 0.76068 h -0.11576 v 0.77721 h 0.11576 v 1.86862 h -0.11576 v 0.21498 h -0.11575 v 0.21497 h -0.0992 v 0.99219 h 0.0992 v 0.23151 h 0.11575 v 0.21497 h 0.11576 v 0.42995 h 0.0992 v 0.99219 h 0.11575 v 1.98437 h 0.0992 v 0.33073 h 0.11576 v 0.87643 h 0.11575 v 0.33073 h 0.0992 v 0.21498 h 0.11576 v 0.11575 h 0.11575 v 0.11576 h 0.0992 v 0.0992 h 0.11575 v 0.11575 h 0.11576 v 0.21498 h 0.0992 v 0.11575 h 0.11575 v 0.11576 h 0.11576 v 0.0992 h 0.21497 v 0.11575 h 0.11576 v 0.11576 h 0.21497 v 0.0992 h 0.21498 v 0.11576 h 0.33072 v 0.11575 h 0.21498 v 0.0992 h 0.23151 v 0.11576 h 0.21497 v 0.0992 h 0.21498 v 0.11575 h 0.33073 v 0.11576 h 0.33073 v 0.0992 h 0.23151 v 0.11575 h 0.21497 v 0.11576 h 0.11575 v 0.21497 h 0.0992 v 0.5457 h 0.11576 v 0.56224 h -0.11576 v 0.3142 h -0.0992 v 0.11575 h -0.11575 v 0.21498 h -0.11576 v 0.23151 h -0.0992 v 0.0992 h -0.23151 v 0.11576 h -1.20717 v 0.0992 h -0.33073 v 0.11575 h -0.21497 v 0.11576 h -0.5457 v -0.11576 h -1.10794 v -0.11575 h -0.33073 v -0.0992 h -0.33073 v -0.11576 h -0.54571 v 0.11576 h -0.44648 v -0.11576 h -0.66146 v -0.0992 h -0.33073 v -0.11576 h -0.76068 v 0.11576 h -0.33072 v 0.0992 h -0.54571 v -0.0992 h -0.89297 v 0.0992 h -0.42994 v -0.0992 h -0.21498 v -0.11576 h -0.11575 v -0.11575 h -0.33073 v -0.0992 h -0.77722 v -0.11576 h -0.21497 v -0.11575 h -0.11575 v -0.0992 h -0.0992 v -0.11576 h -0.11576 v -0.0992 h -0.0992 v -0.23151 h -0.11575 v -0.21497 h -0.11576 v -0.87643 h 0.11576 v -0.23151 h 0.11575 v -0.0992 h 0.0992 v -0.11576 h 0.33073 v -0.11575 h 0.11576 v -0.0992 h 0.0992 v -0.11576 h 0.11576 v -0.0992 h 0.21497 v -0.11575 h 0.23151 v -0.11576 h 0.21498 v -0.0992 h 0.21497 v -0.11576 h 0.33073 v -0.11575 h 0.44649 v -0.0992 h 0.5457 v -0.11576 h 0.33073 v -0.11575 h 0.33073 v -0.0992 h 0.21497 v -0.11576 h 0.23151 v -0.11575 h 0.0992 v -0.0992 h 0.11575 v -0.11576 h 0.11576 v -0.21497 h 0.0992 v -0.99219 h 0.11575 v -1.10794 h -0.11575 v -0.21498 h -0.0992 v -1.0914 h -0.11576 v -0.99219 h 0.11576 v -1.65364 h -0.11576 v -0.77722 h -0.11575 v -2.08359 h 0.11575 v -0.87643 h 0.11576 v -1.20717 h -0.11576 v -1.10794 h -0.11575 v -0.5457 h -0.0992 v -0.33073 h -0.11575 v -0.21497 h -0.11576 v -0.23151 h -0.0992 v -0.21498 h -0.11575 v -0.11575 h -0.11576 v -0.0992 h -0.0992 v -0.11576 h -0.11575 v -0.11575 h -0.11576 v -0.0992 h -0.0992 v -0.11576 h -0.11575 v -0.11575 h -0.21498 v -0.0992 h -0.23151 v -0.11576 h -0.21497 v -0.0992 h -0.42995 v -0.11576 h -0.77721 v -0.11576 h -0.44649 v -0.0992 h -0.33072 v -0.11576 h -0.0992 v -0.11575 h -0.21498 v -0.0992 h -0.11575 v -0.11576 h -0.21498 v -0.11575 h -0.11575 v -0.0992 h -0.11576 v -0.11576 h -0.0992 v -0.21497 h -0.11575 v -0.11576 h -0.11576 v -0.11575 h -0.0992 v -0.33073 h -0.11576 v -0.42995 h 0.11576 v -0.21497 h 0.0992 v -0.23151 h 0.11576 v -0.0992 h 0.21497 v -0.11576 h 0.23151 v -0.11575 h 0.21498 v -0.0992 h 0.5457 z" />
        <path
           id="path60"
           style="font-style:normal;font-variant:normal;font-weight:normal;font-stretch:normal;font-size:33.86666489px;font-family:Wripetyter;-inkscape-font-specification:'Wripetyter, Normal';font-variant-ligatures:normal;font-variant-caps:normal;font-variant-numeric:normal;font-feature-settings:normal;text-align:start;writing-mode:lr-tb;text-anchor:start;fill:#444444;fill-opacity:1;stroke-width:0.26458332"
           d="m 194.72009,272.22604 h 0.678 v 0.11576 h 0.23151 v 0.11576 h 0.11576 v 0.11575 h 0.11575 v 0.23151 h 0.11576 v 0.69453 h 0.11575 v 0.46302 h 0.11576 v 0.0992 h 0.11575 v 0.34727 h -0.11575 v 0.23151 h -0.11576 v 0.46302 h -0.11575 v 0.57877 h -0.11576 v 0.46303 h -0.11575 v 0.57877 h 0.11575 v 0.46302 h 0.11576 v 0.44649 h 0.11575 v 0.46302 h -0.11575 v 0.57877 h -0.11576 v 0.57878 h 0.11576 v 0.34726 h 0.11575 v 0.69454 h -0.11575 v 0.9095 h 0.11575 v 0.34727 h -0.11575 v 1.15755 h 0.11575 v 0.34726 h 0.11576 v 0.34727 h 0.11575 v 1.0418 h -0.11575 v 1.02526 h 0.11575 v 0.34726 h -0.11575 v 0.23151 h -0.11576 v 0.23151 h -0.11575 v 0.57878 h -0.11576 v 0.46302 h -0.11575 v 0.79375 h 0.11575 v 0.34727 h 0.11576 v 0.34726 h 0.11575 v 0.46302 h 0.11576 v 0.57878 h -0.11576 v 0.34726 h -0.11575 v 0.57878 h 0.11575 v 0.34727 h 0.11576 v 0.56224 h -0.11576 v 0.92604 h 0.11576 v 0.46302 h -0.11576 v 1.27331 h 0.11576 v 0.57877 h 0.11575 v 0.11576 h -0.11575 v 0.33073 h -0.11576 v 0.23151 h -0.11575 v 0.11575 h -0.11576 v 0.23151 h -0.11575 v 0.23151 h -0.11576 v 0.23151 h -0.11576 v 0.11576 h -0.11575 v 0.11575 h -0.11576 v 0.11576 h -0.11575 v 0.11575 h -0.44649 v -0.11575 h -0.11575 v -0.11576 h -0.11576 v -0.11575 h -0.11575 v -0.11576 h -0.11576 v -0.11575 h -0.11575 v -0.11576 h -0.11576 v -0.11575 h -0.11575 v -0.11576 h -0.11576 v -0.11575 h -0.11575 v -0.34727 h 0.11575 v -0.11575 h 0.11576 v -0.11576 h 0.11575 v -0.21497 h 0.11576 v -0.46302 h -0.11576 v -1.38907 h -0.11575 v -0.34726 h -0.11576 v -0.34727 h 0.11576 v -1.71979 h -0.11576 v -0.23151 h -0.11575 v -0.11576 h -0.11576 v -0.23151 h -0.11575 v -0.23151 h -0.11576 v -0.23151 h 0.11576 v -0.23151 h 0.11575 v -0.11575 h 0.11576 v -0.92604 h -0.11576 v -0.11576 h 0.11576 v -0.44648 h 0.11575 v -0.46302 h -0.11575 v -0.34727 h -0.11576 v -0.46302 h 0.11576 v -0.34727 h 0.11575 v -0.34726 h 0.11576 v -0.92604 h -0.11576 v -0.23151 h -0.11575 v -0.23151 h -0.11576 v -0.0992 h -0.11575 v -0.46302 h 0.11575 v -0.23151 h 0.11576 v -0.23151 h 0.11575 v -0.34727 h -0.11575 v -0.69453 h 0.11575 v -1.15755 h -0.11575 v -0.11576 h 0.11575 v -0.44648 h 0.11576 v -1.38907 h -0.11576 v -0.23151 h -0.11575 v -0.11575 h -0.11576 v -0.23151 h -0.11575 v -0.57878 h 0.11575 v -0.23151 h 0.11576 v -0.9095 h -0.11576 v -0.11576 h 0.11576 v -1.27331 h -0.11576 v -0.46302 h 0.11576 v -0.34726 h 0.11575 v -0.34727 h 0.11576 v -1.02526 h -0.11576 v -0.23151 h -0.11575 v -0.23151 h 0.11575 v -0.11575 h 0.23151 v -0.11576 h 0.34727 v -0.11575 h 0.11575 v -0.11576 h 0.11576 v -0.23151 h 0.11575 z" />
        <path
           id="path62"
           style="font-style:normal;font-variant:normal;font-weight:normal;font-stretch:normal;font-size:33.86666489px;font-family:Wripetyter;-inkscape-font-specification:'Wripetyter, Normal';font-variant-ligatures:normal;font-variant-caps:normal;font-variant-numeric:normal;font-feature-settings:normal;text-align:start;writing-mode:lr-tb;text-anchor:start;fill:#444444;fill-opacity:1;stroke-width:0.26458332"
           d="m 213.68741,279.65091 h 1.45521 v 0.11576 h 0.33072 v 0.0992 h 0.33073 v 0.11575 h 0.33073 v 0.11576 h 0.23151 v 0.11575 h 0.33073 v 0.0992 h 0.23151 v 0.11576 h 0.21498 v 0.11575 h 0.21497 v 0.11576 h 0.11576 v 0.0992 h 0.11575 v 0.11575 h 0.11576 v 0.11576 h 0.21497 v 0.11575 h 0.11576 v 0.0992 h 0.11575 v 0.23151 h 0.0992 v 0.0992 h 0.11575 v 0.23151 h 0.11576 v 0.21497 h 0.0992 v 0.23152 h 0.11575 v 0.33072 h 0.11576 v 0.23151 h 0.11575 v 0.0992 h 0.0992 v 0.23151 h 0.11576 v 0.0992 h 0.11575 v 0.11576 h 0.11576 v 0.23151 h 0.0992 v 0.21497 h 0.11575 V 284 h 0.11576 v 0.21498 h 0.11575 v 0.23151 h -0.11575 v 0.0992 h -0.11576 v 0.11575 h -0.11575 v 0.11576 h -0.0992 v 0.0992 h -0.11576 v 0.11576 h -0.11575 v 0.11576 h -0.11576 v 0.11575 h -0.0992 v 0.0992 h -0.11575 v 0.11575 h -0.56224 v 0.11576 h -0.66146 v -0.11576 h -0.23151 v -0.11575 h -0.0992 v -0.0992 h -0.11575 v -0.11575 h -0.11576 v -0.11576 h -0.0992 v -0.11576 h -0.11575 v -0.21497 h -0.11576 v -0.11575 h -0.11575 v -0.0992 h -0.0992 v -0.23151 h -0.11576 v -0.66146 h -0.11575 v -0.23151 h -0.11576 v -0.11576 h -0.0992 v -0.0992 h -0.11575 v -0.11575 h -0.23151 v -0.11576 h -0.0992 v -0.0992 h -0.33073 v -0.11575 h -1.00872 v 0.11575 h -0.33073 v 0.0992 h -0.23151 v 0.11576 h -0.21498 v 0.11575 h -0.11575 v 0.0992 h -0.21498 v 0.11576 h -0.11575 v 0.11575 h -0.11576 v 0.11576 h -0.11575 v 0.21497 h -0.0992 v 0.11576 h -0.11576 v 0.21497 h -0.11575 v 0.11576 h -0.11576 v 0.23151 h -0.0992 v 0.0992 h -0.11576 v 0.11575 h -0.11575 v 0.21497 h -0.0992 v 0.11576 h -0.11576 v 0.23151 h -0.11575 v 0.33073 h -0.11576 v 0.33073 h -0.0992 v 0.44648 h -0.11575 v 0.56224 h -0.11576 v 2.11667 h 0.11576 v 0.77721 h 0.11575 v 0.44649 h 0.0992 v 0.33073 h 0.11576 v 0.21497 h 0.11575 v 0.23151 h 0.11576 v 0.21497 h 0.0992 v 0.11576 h 0.11575 v 0.11575 h 0.11576 v 0.0992 h 0.0992 v 0.11576 h 0.11576 v 0.11575 h 0.11575 v 0.11576 h 0.11576 v 0.0992 h 0.21497 v 0.11575 h 0.23151 v 0.11576 h 0.21498 v 0.11575 h 0.33073 v 0.0992 h 0.33073 v 0.11576 h 0.56224 v 0.11575 h 1.67018 v -0.11575 h 0.77721 v -0.11576 h 0.23151 v -0.0992 h 0.21498 v -0.11575 h 0.33073 v -0.11576 h 0.34726 v -0.11575 h 0.33073 v -0.0992 h 0.21497 v -0.11576 h 0.11576 v 0.11576 h 0.21497 v 0.0992 h 0.11576 v 0.11575 h 0.11575 v 0.33073 h -0.11575 v 0.33073 h -0.11576 v 0.44649 h -0.0992 v 0.56224 h -0.11575 v 0.44648 h -0.11576 v 0.21497 h -0.11575 v 0.23151 h -0.0992 v 0.11576 h -0.11576 v 0.0992 h -0.11575 v 0.11575 h -0.0992 v 0.11576 h -0.34726 v 0.11575 h -0.44649 v 0.0992 h -0.21497 v 0.11576 h -0.21498 v 0.11575 h -0.11575 v 0.11576 h -0.11576 v 0.0992 h -0.44648 v 0.11575 h -1.67018 v -0.11575 h -0.44649 v -0.0992 h -0.33073 v -0.11576 h -0.33073 v -0.11575 h -0.56224 v -0.11576 h -0.44648 v -0.0992 h -0.21497 v -0.11575 h -0.23151 v -0.11576 h -0.21498 v -0.11575 h -0.23151 v -0.0992 h -0.0992 v -0.11576 h -0.11575 v -0.11575 h -0.11576 v -0.11576 h -0.11575 v -0.0992 h -0.0992 v -0.11576 h -0.11576 v -0.11576 h -0.11575 v -0.21497 h -0.11576 v -0.23151 h -0.0992 v -0.33073 h -0.11575 v -0.21497 h -0.11576 v -0.34727 h -0.0992 v -0.33073 h -0.11575 v -0.33073 h -0.11576 v -0.33073 h -0.11575 v -0.23151 h -0.0992 v -0.21497 h -0.11576 v -0.23151 h -0.11575 v -0.99219 h -0.11576 v -0.23151 h -0.0992 v -0.21497 h -0.11576 v -0.23151 h -0.11575 v -0.0992 h -0.11576 v -0.33073 h -0.0992 v -0.44649 h -0.11575 v -0.56223 h 0.11575 v -0.89297 h 0.0992 v -0.56224 h 0.11576 v -0.42995 h 0.11575 v -0.34727 h 0.11576 v -0.21497 h 0.0992 v -0.11576 h 0.11576 v -0.11575 h 0.11575 v -0.21497 h 0.11576 v -0.77722 h 0.0992 v -0.23151 h 0.11575 v -0.21497 h 0.11576 v -0.11576 h 0.11575 v -0.33073 h 0.0992 v -0.56224 h 0.11576 v -0.0992 h 0.11575 v -0.23151 h 0.0992 v -0.33072 h 0.11576 v -0.44649 h 0.11575 v -0.23151 h 0.11576 v -0.21497 h 0.0992 v -0.11576 h 0.11575 v -0.0992 h 0.11576 v -0.11575 h 0.11575 v -0.11576 h 0.0992 v -0.11575 h 0.11576 v -0.0992 h 0.11575 v -0.11576 h 0.21498 v -0.11575 h 0.11575 v -0.11576 h 0.11576 v -0.0992 h 0.21497 v -0.11575 h 0.23151 v -0.11576 h 0.21497 v -0.11575 h 0.33073 v -0.0992 h 0.44649 z" />
        <path
           id="path64"
           style="font-style:normal;font-variant:normal;font-weight:normal;font-stretch:normal;font-size:33.86666489px;font-family:Wripetyter;-inkscape-font-specification:'Wripetyter, Normal';font-variant-ligatures:normal;font-variant-caps:normal;font-variant-numeric:normal;font-feature-settings:normal;text-align:start;writing-mode:lr-tb;text-anchor:start;fill:#444444;fill-opacity:1;stroke-width:0.26458332"
           d="m 227.46229,279.7336 h 0.44648 v 0.11575 h 0.56224 v 0.0992 h 0.44648 v 0.11576 h 0.33073 v 0.11575 h 0.21498 v 0.11576 h 0.11575 v 0.0992 h 0.21498 v 0.11576 h 0.34726 v 0.11576 h 0.33073 v 0.11575 h 0.21498 v 0.0992 h 0.11575 v 0.11575 h 0.23151 v 0.11576 h 0.0992 v 0.11575 h 0.11576 v 0.0992 h 0.11575 v 0.11576 h 0.11576 v 0.11575 h 0.0992 v 0.21498 h 0.11576 v 0.11575 h 0.11575 v 0.11576 h 0.11576 v 0.11575 h 0.0992 v 0.21498 h 0.11575 v 0.11575 h 0.11576 v 0.33073 h 0.11575 v 0.33073 h 0.0992 v 0.34727 h 0.11576 v 0.21497 h 0.11575 v 0.23151 h 0.11576 v 0.0992 h 0.0992 v 0.23151 h 0.11575 v 0.11576 h 0.11576 v 0.33072 h 0.11575 v 0.56224 h 0.0992 v 2.4474 h 0.11576 v 0.44648 h 0.11575 v 0.44649 h -0.11575 v 0.21497 h -0.11576 v 1.00873 h 0.11576 v 0.44648 h 0.11575 v 0.23151 h -0.11575 v 0.33073 h -0.11576 v 0.21497 h -0.0992 v 0.23151 h -0.11575 v 0.33073 h -0.11576 v 0.56224 h -0.11575 v 0.21498 h -0.0992 v 0.23151 h -0.11576 v 0.11575 h -0.11575 v 0.0992 h -0.11576 v 0.23151 h -0.0992 v 0.21498 h -0.11575 v 0.11575 h -0.11576 v 0.11576 h -0.11575 v 0.11575 h -0.0992 v 0.0992 h -0.11576 v 0.11576 h -0.11575 v 0.11575 h -0.11576 v 0.11576 h -0.0992 v 0.0992 h -0.23151 v 0.11576 h -0.11576 v 0.11576 h -0.0992 v 0.11575 h -0.11575 v 0.0992 h -0.11576 v 0.11575 h -0.11575 v 0.11576 h -0.0992 v 0.11575 h -0.11576 v 0.0992 h -0.23151 v 0.11576 h -0.21497 v 0.11575 h -0.33073 v 0.11576 h -0.23151 v 0.0992 h -0.0992 v 0.11575 h -0.23151 v 0.11576 h -0.77721 v -0.11576 h -0.678 v 0.11576 h -0.21497 v 0.0992 h -0.33073 v 0.11575 h -0.23151 v 0.11576 h -0.11576 v -0.11576 h -0.33073 v -0.11575 h -0.77721 v -0.0992 h -0.33073 v -0.11576 h -0.23151 v -0.11575 h -0.21497 v -0.0992 h -0.23152 v -0.11576 h -0.21497 v -0.11575 h -0.23151 v -0.11576 h -0.11575 v -0.0992 h -0.21498 v -0.11575 h -0.23151 v -0.11576 h -0.0992 v -0.11575 h -0.11575 v -0.0992 h -0.23151 v -0.11575 h -0.0992 v -0.11576 h -0.11576 v -0.11576 h -0.11575 v -0.0992 h -0.11576 v -0.11576 h -0.0992 v -0.23151 h -0.11575 v -0.21497 h -0.11576 v -0.23151 h -0.11575 v -0.33073 h -0.0992 v -0.21498 h -0.11576 v -0.34726 h -0.11575 v -0.21498 h -0.11576 v -0.33073 h -0.0992 v -0.44648 h -0.11575 v -0.44648 h -0.11576 v -0.678 h -0.11575 v -1.00872 h -0.0992 v -0.66146 h -0.11575 v -0.33073 h 0.11575 v -0.89297 h -0.11575 v -1.12448 h 0.11575 v -0.33073 h 0.0992 v -0.21497 h 0.11575 v -0.23151 h 0.11576 v -0.21498 h 0.11575 v -0.56224 h 0.0992 v -1.12447 h 0.11576 v -0.21498 h 0.11575 v -0.11575 h 0.11576 v -0.21498 h 0.0992 v -0.44648 h 0.11575 v -0.34727 h 0.11576 v -0.21497 h 0.11575 v -0.23151 h 0.0992 v -0.21498 h 0.11576 v -0.11575 h 0.11575 v -0.11576 h 0.11576 v -0.0992 h 0.0992 v -0.11575 h 0.23151 v -0.11576 h 0.11575 v -0.11575 h 0.21498 v -0.0992 h 0.11575 v -0.11575 h 0.33073 v -0.11576 h 0.23151 v -0.11576 h 0.33073 v -0.0992 h 0.33073 v -0.11576 h 0.33073 v -0.11575 h 0.44648 v -0.11576 h 0.89297 v -0.0992 h 0.678 z m -0.56224,3.78685 v 0.11575 h -0.44649 v 0.11576 h -0.33073 v 0.11575 h -0.33073 v 0.0992 h -0.23151 v 0.11575 h -0.21497 v 0.11576 h -0.11576 v 0.11576 h -0.23151 v 0.0992 h -0.0992 v 0.23151 h -0.11576 v 0.11576 h -0.11576 v 0.21497 h -0.11575 v 0.23151 h -0.0992 v 0.21498 h -0.11575 v 0.23151 h -0.11576 v 0.21497 h -0.11575 v 0.33073 h -0.0992 v 0.44649 h -0.11576 v 2.46393 h 0.11576 v 0.5457 h 0.0992 v 0.23151 h 0.11575 v 0.33073 h 0.11576 v 0.11576 h 0.11575 v 0.21497 h 0.0992 v 0.23151 h 0.11575 v 0.11576 h 0.11576 v 0.0992 h 0.11576 v 0.23151 h 0.0992 v 0.11576 h 0.11576 v 0.0992 h 0.11575 v 0.23151 h 0.11576 v 0.11575 h 0.21497 v 0.0992 h 0.11576 v 0.11576 h 0.11575 v 0.11575 h 0.21498 v 0.11576 h 0.33073 v 0.0992 h 0.34726 v 0.11575 h 1.2237 v -0.11575 h 0.66146 v -0.0992 h 0.23151 v -0.11576 h 0.11575 v -0.11575 h 0.21498 v -0.11576 h 0.23151 v -0.0992 h 0.21497 v -0.11575 h 0.11576 v -0.11576 h 0.0992 v -0.21497 h 0.11575 v -0.44648 h 0.11576 v -0.11576 h 0.11575 v -0.11575 h 0.33073 v -0.11576 h 0.21498 v -0.0992 h 0.11575 v -0.23151 h 0.11576 v -0.89297 h 0.11575 v -0.89297 h 0.0992 v -0.66146 h -0.0992 v -0.33072 h -0.11575 v -0.56224 h -0.11576 v -0.56224 h -0.11575 v -0.21498 h -0.0992 v -0.11575 h -0.11576 v -0.11576 h -0.23151 v -0.11575 h -0.0992 v -0.0992 h -0.11575 v -0.11576 h -0.11576 v -0.23151 h -0.11575 v -0.0992 h -0.0992 v -0.34726 h -0.11576 v -0.21498 h -0.11575 v -0.23151 h -0.0992 v -0.0992 h -0.11576 v -0.11576 h -0.11575 v -0.11576 h -0.21498 v -0.11575 h -0.23151 v -0.0992 h -0.21497 v -0.11575 h -0.34727 v -0.11576 h -0.21497 v -0.11575 z" />
        <path
           id="path66"
           style="font-style:normal;font-variant:normal;font-weight:normal;font-stretch:normal;font-size:33.86666489px;font-family:Wripetyter;-inkscape-font-specification:'Wripetyter, Normal';font-variant-ligatures:normal;font-variant-caps:normal;font-variant-numeric:normal;font-feature-settings:normal;text-align:start;writing-mode:lr-tb;text-anchor:start;fill:#444444;fill-opacity:1;stroke-width:0.26458332"
           d="m 243.32074,272.68907 h 0.92604 v 0.11575 h 0.67799 v 0.11576 h 0.23151 v 0.11575 h 0.34727 v 0.11576 h 0.23151 v 0.11575 h 0.23151 v 0.11576 h 0.23151 v 0.11575 h 0.23151 v 0.11576 h 0.11576 v 0.11575 h 0.23151 v 0.11576 h 0.11575 v 0.11575 h 0.11576 v 0.11576 h 0.11575 v 0.23151 h 0.11576 v 0.67799 h 0.11575 v 0.57878 h 0.11576 v 0.92604 h 0.0992 v 2.87734 h 0.11575 v 3.20808 h 0.11576 v 1.04179 h -0.11576 v 0.46302 h -0.11575 v 1.83555 h 0.11575 v 0.92604 h 0.11576 v 0.69453 h -0.11576 v 1.48829 h 0.11576 v 0.92604 h 0.11575 v 0.67799 h 0.11576 v 0.92604 h 0.11575 v 0.34727 h 0.11576 v 0.23151 h 0.11575 v 0.23151 h 0.11576 v 0.11576 h 0.11575 v 0.11575 h 0.23151 v 0.11576 h 0.11576 v 0.11575 h 0.23151 v 0.11576 h 0.23151 v 0.11575 h 0.23151 v 0.11576 h 0.23151 v 0.0992 h 0.11576 v 0.11575 h 0.11575 v 0.11576 h 0.11576 v 0.23151 h 0.0992 v 0.23151 h 0.11576 v 0.34726 h 0.11575 v 0.46302 h -0.11575 v 0.23151 h -0.11576 v 0.11576 h -0.0992 v 0.11575 h -0.11576 v 0.11576 h -0.23151 v 0.11575 h -0.34727 v 0.11576 h -0.34726 v 0.11575 h -1.50482 v -0.11575 h -0.44648 v -0.11576 h -0.34727 v -0.11575 h -0.34726 v -0.11576 h -1.83555 v 0.11576 h -0.34727 v 0.11575 h -0.34726 v 0.11576 h -0.46302 v 0.11575 h -0.46302 v 0.0992 h -1.25677 v 0.11576 h -0.69454 v -0.11576 h -0.92604 v -0.0992 h -0.46302 v -0.11575 h -0.23151 v -0.11576 h -0.33073 v -0.11575 h -0.23151 v -0.11576 h -0.23151 v -0.11575 h -0.23151 v -0.11576 h -0.11575 v -0.11575 h -0.23151 v -0.11576 h -0.11576 v -0.11575 h -0.11576 v -0.11576 h -0.11575 v -0.11575 h -0.11576 v -0.11576 h -0.11575 v -0.23151 h -0.11576 v -0.11575 h -0.11575 v -0.11576 h -0.11576 v -0.11575 h -0.11575 v -0.23151 h -0.11576 v -0.11576 h -0.11575 v -0.21497 h -0.11576 v -0.11576 h -0.0992 v -0.23151 h -0.11575 v -0.23151 h -0.11576 v -0.23151 h -0.11575 v -0.92604 h -0.11576 v -0.46302 h -0.11575 v -0.11576 h -0.11576 v -0.23151 h -0.11575 v -0.0992 h -0.11576 v -0.11575 h -0.11575 v -0.23151 h -0.11576 v -0.46302 h 0.11576 v -0.23151 h 0.11575 v -0.57878 h -0.11575 v -0.23151 h -0.11576 v -0.34727 h -0.11575 v -0.23151 h 0.11575 v -1.60403 h 0.11576 v -0.23151 h 0.11575 v -0.23151 h 0.11576 v -0.46302 h 0.11575 v -0.34727 h -0.11575 v -0.56224 h 0.11575 v -0.34726 h 0.11576 v -0.34727 h 0.11575 v -0.34727 h 0.11576 v -0.34726 h 0.11575 v -0.34727 h 0.11576 v -0.23151 h 0.11575 v -0.11575 h 0.0992 v -0.21498 h 0.11576 v -0.11575 h 0.11575 v -0.23151 h 0.11576 v -0.11576 h 0.11575 v -0.23151 h 0.11576 v -0.23151 h 0.11575 v -0.11575 h 0.11576 v -0.23151 h 0.11575 v -0.11576 h 0.11576 v -0.11575 h 0.23151 v -0.11576 h 0.23151 v -0.11575 h 0.11576 v -0.11576 h 0.23151 v -0.11576 h 0.11575 v -0.23151 h 0.11576 v -0.11575 h 0.11575 v -0.11576 h 0.11576 v -0.11575 h 0.11575 v -0.0992 h 0.23151 v -0.11576 h 0.21498 v -0.11575 h 0.23151 v -0.11576 h 0.23151 v -0.11575 h 1.04179 v 0.11575 h 1.02526 v 0.11576 h 0.69454 v 0.11575 h 0.23151 v 0.11576 h 0.34726 v 0.0992 h 0.34727 v -0.0992 h 0.34726 v -0.11576 h 0.23151 v -0.11575 h 0.11576 v -0.11576 h 0.23151 v -0.11575 h 0.11575 v -0.11576 h 0.0992 v -0.11575 h 0.11576 v -0.11576 h 0.11575 v -0.23151 h 0.11576 v -0.23151 h 0.11575 v -0.81028 h -0.11575 v -0.34727 h -0.11576 v -0.44648 h -0.11575 v -0.34727 h -0.11576 v -0.11575 h -0.0992 v -0.23151 h -0.11575 v -0.11576 h -0.23151 v -0.11576 h -0.11576 v -0.11575 h -0.23151 v -0.11576 h -0.23151 v -0.11575 H 243.668 v -0.11576 h -0.34726 v -0.11575 h -1.7198 v 0.11575 h -0.23151 v -0.11575 h -0.46302 v -0.11576 h -0.23151 v -0.11575 h -0.23151 v -0.11576 h -0.11575 v -0.11575 h -0.11576 v -0.11576 h -0.11575 v -0.11575 h -0.11576 v -0.23151 h -0.11575 v -0.44649 h 0.11575 v -0.23151 h 0.11576 v -0.23151 h 0.11575 v -0.11575 h 0.11576 v -0.11576 h 0.23151 v -0.11575 h 0.23151 v -0.11576 h 0.57877 v -0.11575 h 0.57878 v -0.11576 h 1.37253 z m -1.37253,9.44231 v 0.11576 h -1.15755 v 0.11575 h -0.34727 v 0.0992 h -0.46302 v 0.11576 h -0.34726 v 0.11575 h -0.21498 v 0.11576 h -0.23151 v 0.11575 h -0.11575 v 0.11576 h -0.11576 v 0.11575 h -0.11575 v 0.11576 h -0.11576 v 0.11575 h -0.11575 v 0.23151 h -0.11576 v 0.23151 h -0.11575 v 0.34727 h -0.11576 v 0.34727 h -0.11575 v 0.46302 h -0.11576 v 0.56224 h -0.11576 v 0.46302 h -0.11575 v 0.34726 h -0.11576 v 0.34727 h -0.11575 v 0.34726 h -0.11576 v 1.60404 h 0.11576 v 0.69453 h 0.11575 v 0.23151 h -0.11575 v 0.69453 h 0.11575 v 0.33073 h 0.11576 v 0.11576 h 0.11575 v 0.23151 h 0.11576 v 0.23151 h 0.11576 v 0.11575 h 0.11575 v 0.11576 h 0.11576 v 0.11575 h 0.11575 v 0.23151 h 0.11576 v 0.11576 h 0.11575 v 0.11575 h 0.11576 v 0.23151 h 0.11575 v 0.11576 h 0.11576 v 0.11576 h 0.23151 v 0.11575 h 0.11575 v 0.11576 h 0.21498 v 0.11575 h 0.34726 v 0.11576 h 0.23151 v 0.11575 h 0.23151 v 0.11576 h 0.34727 v 0.0992 h 0.46302 v 0.11575 h 1.37253 v -0.11575 h 0.46302 v -0.0992 h 0.23151 v -0.11576 h 0.23151 v -0.11575 h 0.23151 v -0.11576 h 0.11575 v -0.11575 h 0.11576 v -0.11576 h 0.23151 v -0.11575 h 0.11575 v -0.11576 h 0.23151 v -0.11576 h 0.11576 v -0.11575 h 0.11575 v -0.11576 h 0.21498 v -0.23151 h 0.11575 v -0.23151 h 0.11576 v -0.23151 h 0.11575 v -0.23151 h 0.11576 v -0.23151 h 0.11575 v -0.11575 h 0.11576 v -1.14102 h -0.11576 v -0.69453 h -0.11575 v -1.9513 h -0.11576 v -1.15755 h -0.11575 v -0.57878 h -0.11576 v -0.44648 h -0.11575 v -0.46302 h -0.11576 v -0.34727 h -0.0992 v -0.23151 h -0.11575 v -0.23151 h -0.11576 v -0.23151 h -0.11575 v -0.11576 h -0.11576 v -0.11575 h -0.11575 v -0.23151 h -0.11576 v -0.11576 h -0.11575 v -0.11575 h -0.23151 v -0.11576 h -0.23151 v -0.0992 h -0.57878 v -0.11575 h -0.34726 v -0.11576 z" />
        <path
           id="path68"
           style="font-style:normal;font-variant:normal;font-weight:normal;font-stretch:normal;font-size:33.86666489px;font-family:Wripetyter;-inkscape-font-specification:'Wripetyter, Normal';font-variant-ligatures:normal;font-variant-caps:normal;font-variant-numeric:normal;font-feature-settings:normal;text-align:start;writing-mode:lr-tb;text-anchor:start;fill:#444444;fill-opacity:1;stroke-width:0.26458332"
           d="m 257.27752,279.45248 h 1.00872 v 0.11575 h 0.56224 v 0.11576 h 0.44648 v 0.11575 h 0.33073 v 0.0992 h 0.34727 v 0.11576 h 0.21497 v 0.11575 h 0.56224 v 0.11576 h 0.23151 v 0.11575 h 0.11576 v 0.0992 h 0.21497 v 0.11576 h 0.11576 v 0.23151 h 0.11575 v 0.21497 h 0.11576 v 0.34727 h 0.11575 v 0.44648 h 0.0992 v 0.23151 h 0.11576 v 0.21497 h 0.11575 v 0.23152 h 0.11576 v 0.23151 h 0.11575 v 0.33072 h 0.0992 v 0.33073 h 0.11576 v 0.23151 h 0.11575 v 0.11576 h 0.11576 v 0.21497 h 0.11575 v 0.11576 h 0.11576 v 0.11575 h 0.0992 v 0.23151 h 0.11575 v 0.0992 h 0.11576 v 0.34727 h 0.11575 v 0.56224 h 0.11576 v 0.21497 h 0.0992 v 0.34727 h -0.0992 v 1.68672 h -0.11576 v 0.33073 h -0.11575 v 0.11575 h -0.11576 v 0.11576 h -0.11575 v 0.11575 h -0.0992 v 1.00872 h 0.0992 v 0.23152 h 0.11575 v 0.0992 h 0.11576 v 0.11576 h 0.11575 v 0.11575 h 0.11576 v 0.23151 h 0.0992 v 0.21498 h 0.11575 v 1.12448 h -0.11575 v 0.44648 h -0.0992 v 0.34727 h -0.11576 v 0.21497 h -0.11575 v 0.23151 h -0.11576 v 0.23151 h -0.11575 v 0.21498 h -0.0992 v 0.11575 h -0.11576 v 0.11576 h -0.11575 v 0.21497 h -0.11576 v 0.11576 h -0.11575 v 0.11575 h -0.11576 v 0.23151 h -0.0992 v 0.0992 h -0.11575 v 0.11576 h -0.11576 v 0.11575 h -0.11575 v 0.11576 h -0.11576 v 0.11575 h -0.0992 v 0.0992 h -0.11575 v 0.11576 h -0.23151 v 0.11575 h -0.11576 v 0.11576 h -0.21497 v 0.11575 h -0.11576 v 0.0992 h -0.11575 v 0.11575 h -0.21498 v 0.11576 h -0.23151 v 0.11576 h -0.23151 v 0.11575 h -0.77721 v 0.0992 h -1.47175 v -0.0992 H 257.724 v -0.11575 h -0.23151 v -0.11576 h -1.24023 v -0.11576 h -0.0992 v -0.11575 h -0.23151 v -0.0992 h -0.11576 v -0.11575 h -0.21497 v -0.11576 h -0.23151 v -0.11575 h -0.23151 v -0.11576 h -0.21498 v -0.0992 h -0.23151 v -0.11575 h -0.11575 v -0.11576 h -0.11576 v -0.11575 h -0.0992 v -0.11576 h -0.23151 v -0.0992 h -0.11575 v -0.11575 h -0.11576 v -0.11576 h -0.0992 v -0.11575 h -0.11575 v -0.11576 h -0.11576 v -0.0992 h -0.11575 v -0.11575 h -0.11576 v -0.56224 h -0.0992 v -0.44649 h -0.11575 v -0.11575 h -0.11576 v -0.23151 h -0.11575 v -0.11576 h -0.11576 v -0.0992 h -0.0992 v -0.23151 h -0.11576 v -0.23151 h -0.11576 v -0.21497 h -0.11575 v -0.34727 h -0.11576 v -1.22369 h -0.0992 v -0.34727 h -0.11576 v -0.33073 h 0.11576 v -0.46302 h 0.0992 v -0.33073 h -0.0992 v -0.44648 h -0.11576 v -1.68672 h -0.11575 v -0.678 h 0.11575 v -0.33073 h 0.11576 v -0.23151 h 0.0992 v -0.33073 h 0.11576 v -0.46302 h 0.11575 v -0.21497 h 0.11576 v -0.11576 h 0.11576 v -0.23151 h 0.0992 v -0.0992 h 0.11576 v -0.11575 h 0.11575 v -0.23151 h 0.11576 v -0.44648 h 0.11575 v -0.23152 h 0.0992 v -0.21497 h 0.11576 v -0.23151 h 0.11575 v -0.11575 h 0.11576 v -0.11576 h 0.21497 v -0.0992 h 0.23151 v -0.11575 h 0.11576 v -0.23151 h 0.11575 v -0.21498 h 0.0992 v -0.23151 h 0.11576 v -0.11575 h 0.11575 v -0.11576 h 0.11576 v -0.0992 h 0.11575 v -0.11575 h 0.0992 v -0.11576 h 0.23151 v -0.11575 h 0.23151 v -0.11576 h 0.21498 v -0.0992 h 0.46302 v -0.11575 h 0.56224 v -0.11576 h 0.56224 z m 0.21497,2.69544 v 0.11575 h -0.33073 v 0.11576 h -0.34726 v 0.11576 h -0.21498 v 0.11575 h -0.11575 v 0.11576 h -0.23151 v 0.0992 h -0.0992 v 0.11576 h -0.11576 v 0.11575 h -0.11575 v 0.11576 h -0.11576 v 0.11575 h -0.11575 v 0.0992 h -0.0992 v 0.23151 h -0.11576 v 0.23151 h -0.11575 v 0.44649 h -0.11576 v 0.11575 h -0.11575 v 1.33946 h 0.11575 v 0.23151 h 0.11576 v 0.11575 h 0.11575 v 0.0992 h 0.11576 v 0.11576 h 0.33073 v 0.11575 h 0.33073 v -0.11575 h 0.34726 v 0.11575 h 1.45521 v -0.11575 h 1.80247 v -0.11576 h 0.33073 v -0.0992 h 0.11576 v -0.11575 h 0.11575 v -0.11576 h 0.11576 v -0.23151 h 0.11575 v -0.56224 h -0.11575 v -0.66146 h -0.11576 v -0.79375 h -0.11575 v -0.11575 h -0.11576 v -0.11576 h -0.0992 v -0.0992 h -0.11575 v -0.11575 h -0.23151 v -0.11576 h -0.11576 v -0.11575 h -0.0992 v -0.11576 h -0.11575 v -0.0992 h -0.11576 v -0.11576 h -0.11575 v -0.11575 h -0.21497 v -0.11576 h -0.23152 v -0.11576 h -0.23151 v -0.11575 z m -1.57096,6.20117 v 0.0992 h -0.33073 v 0.11575 h -0.23151 v 0.11576 h -0.44649 v 0.11576 h -0.23151 v 0.11575 h -0.11575 v 0.0992 h -0.11576 v 0.11575 h -0.0992 v 1.24024 h 0.0992 v 0.56224 h 0.11576 v 0.23151 h 0.11575 v 0.21497 h 0.11576 v 0.11576 h 0.11575 v 0.11575 h 0.0992 v 0.11576 h 0.11576 v 0.11575 h 0.11575 v 0.0992 h 0.11576 v 0.11576 h 0.11575 v 0.11575 h 0.11576 v 0.11576 h 0.0992 v 0.11575 h 0.23151 v 0.0992 h 0.11575 v 0.11576 h 0.21498 v 0.11575 h 0.23151 v 0.11576 h 0.23151 v 0.11575 h 0.44648 v 0.0992 h 0.89297 v 0.11576 h 1.57096 v -0.11576 h 0.56224 v -0.0992 h 0.34727 v -0.11575 h 0.21497 v -0.11576 h 0.11576 v -0.11575 h 0.11575 v -0.11576 h 0.11576 v -0.0992 h 0.11575 v -0.11575 h 0.0992 v -0.23151 h 0.11576 v -0.11576 h 0.11575 v -0.21497 h 0.11576 v -0.23151 h 0.11575 v -0.21498 h 0.0992 v -0.23151 h 0.11576 v -0.33073 h 0.11575 v -0.11575 h 0.11576 v -0.23151 h 0.11575 v -0.11576 h 0.0992 v -0.0992 h 0.11576 v -0.79375 h -0.11576 v -0.23151 h -0.0992 v -0.11575 h -0.11575 v -0.0992 h -0.11576 v -0.11575 h -0.33073 v -0.11576 h -0.56224 v -0.11576 H 257.724 v -0.11575 h -1.24023 v -0.0992 z" />
      </g>
    </g>
  </g>
</svg>
